<svg xmlns="http://www.w3.org/2000/svg" width="1400" height="580" fill="none"><g clip-path="url(#a)"><path stroke="url(#b)" stroke-linejoin="round" stroke-miterlimit="10" stroke-width=".3" d="m113.793 266.408-27.682 4.424m27.682-4.424 5.427-1.513m-5.427 1.513 28.844-11.912m-56.526 16.336 33.109-5.937m-33.11 5.937 7.337-3.87m25.773-2.067-25.773 2.067m25.773-2.067 6.2-3.576m-6.2 3.576 23.417-10.399m-23.417 10.399 27.742-12.868m-53.515 14.935 31.973-5.643m-31.973 5.643-28.977-6.26 36.403 2.101m-7.426 4.159 7.426-4.159m24.547-1.484 21.542-9.292m-21.542 9.292 29.134-9.428m-29.134 9.428-24.547 1.484m24.547-1.484 8.599-.125m8.618-6.698 4.325-2.469m-4.325 2.469 24.577-17.606m-20.252 15.137 7.592-.136m-7.592.136 20.252-15.137m-20.252 15.137 25.999-15.418m-18.407 15.282 18.407-15.282m-18.407 15.282 29.233-10.148m-29.233 10.148-20.535 9.303m20.535-9.303 11.616 5.74m1.044-20.741 5.747-.281m-5.747.281 24.612-17.61m-18.865 17.329 10.826 5.134m-10.826-5.134 18.865-17.329m-18.865 17.329 27.874-13.598m-17.048 18.732 17.048-18.732m-17.048 18.732-17.617 15.888m25.656-38.351 9.009 3.731m0 0 19.931-15.669m-19.931 15.669-9.008-3.731 28.939-11.938m-19.931 15.669-17.048 18.731m17.048-18.731 15.219 10.913m-15.219-10.913 33.358-7.418m-13.427-8.251 13.427 8.251m-13.427-8.251 58.864-3.627m-178.757 59.088-28.209-5.652m28.209 5.652 8.958.416m-8.958-.416-36.403-2.102 8.194-3.55m28.209 5.652 33.146-1.609m-61.355-4.043 37.167 6.068m-37.167-6.068-31.472-9.48m31.472 9.48 8.858 2.155m28.309 3.913 24.188-2.025m-24.188 2.025 35.759 4.192m-35.759-4.192-28.309-3.913m28.309 3.913 10.878 7.232m13.31-9.257 11.571 6.217m-11.571-6.217 32.151-3.563m17.617-15.889 32.267-7.818m-32.267 7.818 15.795 12.118m-15.795-12.118-17.617 15.889m49.884-23.707-16.472 19.936m16.472-19.936 18.139-18.331m-18.139 18.331 53.474-3.674m-53.474 3.674 20.451 17.688m-36.923 2.248-18.065 16.305m18.065-16.305 19.602 18.047m-19.602-18.047-33.412 3.771m33.412-3.771 36.923-2.248m-90.915 15.799 20.58-9.78m-20.58 9.78 35.927 2.754m-35.927-2.754-24.881 3.04m24.881-3.04 14.062 12.827m6.518-22.607 15.347 12.534m0 0 37.667 1.742m-37.667-1.742-21.865 10.073m21.865-10.073 17.729 17.622m19.938-15.88 17.321-20.295m-17.321 20.295 49.142.481m-49.142-.481-19.938 15.88m19.938-15.88 21.196 20.297m-6.187-76.611 35.335 14.657m-35.335-14.657 45.437-11.878m-45.437 11.878 69.93-5.892m-69.93 5.892 35.335 14.658 34.595-20.55m-34.595 20.549 34.595-20.549m-34.595 20.549 52.914-7.786m-52.914 7.786-33.023 21.362m33.023-21.362 26.772 18.296m-16.67-44.831 24.493 5.986m-24.493-5.986 58.212-10.303m-33.719 16.289 18.319 12.763m-18.319-12.763 33.719-16.289m-33.719 16.289 42.3-12.388m-23.981 25.151 23.981-25.151m-23.981 25.151 33.113-11.305m-33.113 11.305L296.3 248.546m26.142-26.082 14.824 19.231m.576-48.283 8.581 3.901m-8.581-3.901 30.862-15.69m-22.281 19.591 9.132 13.846m-9.132-13.846 22.281-19.591m-22.281 19.591 24.985-14.746m-15.853 28.592 15.853-28.592m-15.853 28.592 23.937-11.51m-23.937 11.51 11.028 22.321m-11.028-22.321-18.289 30.536m31.438-63.973 2.704 4.845m0 0 15.229-20.861m-15.229 20.861-2.704-4.846 17.933-16.015m-15.229 20.861 8.084 17.082m-8.084-17.082 20.181-12.922m-4.952-7.939 4.952 7.939m-4.952-7.939 19.405-11.287M236.505 251.612l31.821 20.776m-31.821-20.776 59.795-3.066m-27.974 23.842 27.974-23.842m-27.974 23.842 47.195-2.551m-47.195 2.551-27.946 19.816m27.946-19.816 21.773 20.316m6.201-44.158 19.221 21.291M296.3 248.546l40.966-6.851m42.226-42.046-12.909 33.831m12.909-33.831 12.097-30.004m-12.097 30.004 25.364-8.414m-25.364 8.414 13.473 26.686m-26.382 7.145-29.317 8.215m29.317-8.215-16.089 32.162m16.089-32.162 13.489 27.883m-13.489-27.883 26.382-7.145m-26.382 7.145 26.382-7.144m-77.444 43.501 21.745-28.142m-21.745 28.142 34.973-4.195m-34.973 4.195-25.422 22.867m25.422-22.867 14.132 22.251m7.613-50.393 13.228 23.947m-13.228-23.947 29.317-8.214-16.089 32.161m0 0-20.841 26.446m20.841-26.446 12.756 25.467m-12.756-25.467 29.578-4.279m-338.88-13.692 40.33 11.635m-40.33-11.635 8.492 5.757m31.838 5.878-31.838-5.878m31.838 5.878 9.73 9.448m-9.73-9.448 39.187 11.145m-39.187-11.145 9.73 9.449 29.457 1.696m-71.025-17.023 41.567 15.326m-41.567-15.326-33.703-1.213m33.703 1.213 8.565 13.762m33.002 1.564 29.458 1.697m-29.458-1.697 41.593 15.359m-41.593-15.359-33.003-1.564m33.003 1.564 9.968 15.501m19.49-13.804 12.135 13.662m-12.135-13.662 38.943 9.787m-26.808 3.875 26.808-3.875m-26.808 3.875 41.833 13.204m-41.833-13.204-31.625.142m31.625-.142 11.75 16.33m15.058-20.205 15.025 17.079m-15.025-17.079 39.594 7.549m-24.569 9.53 24.569-9.53m-24.569 9.53 42.284 8.849m-42.284-8.849 13.402 15.479m-13.402-15.479-30.083 3.126m54.652-12.656 17.715 18.379m-17.715-18.379 41.134 4.417M15.981 252.215l42.267 14.975m-42.267-14.975 8.21 20.339m34.058-5.364-34.058 5.364m34.058-5.364 9.528 19.571m-9.529-19.571 42.971 17.065m-77.028-11.701 43.586 14.207m-43.586-14.207-35.414 13.192 44.28 10.267m-8.866-23.459 8.867 23.459m34.72-9.252 33.441-2.506m-33.442 2.506 44.057 14.166m-44.057-14.166-34.718 9.252L77.83 306.08m-10.053-19.319L77.83 306.08m-10.053-19.319-34.72 9.252m68.162-11.758 10.615 16.672m-10.615-16.672 43.375 16.188m72.367 5.723-28.882 6.63m28.882-6.63 23.419-13.962m-23.419 13.962 44.606 2.699m-44.606-2.699-28.881 6.631m28.881-6.631 14.415 12.2m-14.415-12.2 14.416 12.2m-43.298-5.57-31.97.289m31.97-.289 12.274 8.482-44.244-8.193m31.97-.289-43.485-12.353m43.485 12.353-43.485-12.352 11.515 12.641m-44.275-12.158 32.76-.484m-32.76.484 44.275 12.158m-44.275-12.158L77.83 306.08m34.004-5.153 11.052 14.045m21.708-14.529 11.515 12.642m0 0-33.223 1.887m33.223-1.887 11.909 8.64m-11.909-8.64 44.245 8.193m40.026-29.074 21.187 16.661m-21.187-16.661 49.719.5m-28.532 16.161 28.532-16.161m-28.532 16.161 41.711 1.362m-41.711-1.362-30.19 9.501m58.722-25.662 13.179 17.523m-13.179-17.523 39.554-.616m-26.375 18.139 26.375-18.139m-26.375 18.139 37.093 1.593m-37.093-1.593-30.447 8.896m30.447-8.896-41.71-1.362m41.71 1.362 8.577 11.263m17.798-29.402 10.718 19.732m-10.718-19.732 33.597-.979m-22.879 20.711 22.879-20.711m-22.879 20.711 35.506 1.634m-35.506-1.634 9.601 12.673m-9.601-12.673-28.516 9.67m51.395-30.381-22.879 20.712-10.718-19.732 33.597-.98Zm0 0 16.822-29.746m-16.822 29.746 12.627 22.345m-12.627-22.345 16.822-29.747m-16.822 29.747 32.561-.663m-15.739-29.083 12.893-35.028m-12.893 35.028 30.99-2.813m-30.99 2.813 12.893-35.027M188.08 312.797l43.296 5.569m-43.296-5.569 12.274 8.481m31.022-2.912-31.022 2.912m31.022-2.912 12.534 4.976m-12.534-4.976 41.455.757m-72.477 2.155 43.556 2.064m-43.556-2.064-32.336.447m32.336-.447 12.671 4.104m30.885-2.04 28.921-4.219m-28.921 4.219 41.156 2.457m-41.156-2.457-30.885 2.04m30.885-2.04 12.681 3.953m4.977-18.43-30.191 9.501m30.191-9.501 11.263 10.258m-41.454-.757 41.454.757m0 0 12.235 6.676m-12.235-6.676 39.024 2.367m64.022-8.036-25.905 11.039m25.905-11.039 19.934-23.008m-19.934 23.008 36.934 1.475m-36.934-1.475 12.829 13.624m-38.734-2.585-25.161 5.819m25.161-5.819 14.46 10.532m-14.46-10.532-38.117-3.003m38.117 3.003-25.161 5.82m25.161-5.82 38.734 2.585m-103.64-1.279 26.789-4.309m-26.789 4.309 39.745 4.513m-39.745-4.513-28.475 1.496m28.475-1.496 13.396 7.54m-13.396-7.54 39.745 4.514m-12.956-8.823 12.956 8.822m-12.956-8.822 12.956 8.823m0-.001 39.621 4.713m-39.621-4.713 14.893 10.694m24.728-5.981 24.274-7.947m-24.274 7.947 40.786 3.046m-40.786-3.046-24.728 5.981m24.728-5.981 16.943 12.601m-56.564-17.313-26.349 3.026m26.349-3.026 14.893 10.693m51.885-171.361 13.267 21.59m-13.267-21.59 14.453-19.226m-14.453 19.226 27.876-6.923m-14.609 28.513 14.609-28.513m-14.609 28.513 36.43 1.43m-36.43-1.43-11.891 35.1m11.891-35.1 20.256 31.448m-19.07-72.264 13.423 12.303m-13.423-12.303 33.93 1.243m-20.507 11.06 21.821 29.943m-21.821-29.943 20.507-11.06m-20.507 11.06 40.559 18.306m-40.559-18.306 40.559 18.307m-18.738 11.636 18.738-11.637m-18.738 11.637 42.564 32.367m-42.564-32.367 18.738-11.636m-18.738 11.636-16.174 30.018m16.174-30.018 24.953 43.297m-26.267-84.3 20.052 29.366m-20.052-29.366 42.167 37.669m-22.115-8.303 23.826 44.004m-23.826-44.004 22.115 8.303m1.711 35.701 19.405 3.685m-19.405-3.685-23.826-44.003m23.826 44.003 42.808 47.532m-42.808-47.532 25.273 47.303m-25.273-47.303-17.611 10.93m-6.215-54.933 22.115 8.302m-22.115-8.302 43.231 47.688m-21.116-39.386 21.116 39.386m0 0 23.403 43.847m-23.403-43.847 21.383 16.245m-21.383-16.245 41.298 51.545m-41.298-51.545 23.404 43.848m-2.021-27.603-21.383-16.244-21.115-39.386 42.498 55.63Zm0 0 19.915 35.3m-19.915-35.3 44.471 48.62m-176.144-67.247 18.097 32.215m-18.097-32.215 32.147-3.652m-14.05 35.867-15.251 31.896m15.251-31.896 21.174 32.223m-21.174-32.223-30.99 2.812m30.99-2.812 38.479 1.348m-56.576-33.562 32.147-3.653m-32.147 3.653 18.097 32.215m14.05-35.868-14.05 35.868m14.05-35.868 24.429 37.215m-24.429-37.215 41.127 13.279m-41.127-13.279 24.429 37.216 16.698-23.937m-55.177 22.589 38.479 1.347m77.117 12.666-17.535-.229m0 0-17.325 9.06m17.325-9.06 25.081 42.901m-25.081-42.901-42.884-36.373m-16.698 23.936 16.698-23.936m-16.698 23.936 42.257 21.497m-42.257-21.497-17.305 30.875m17.305-30.875 24.305 38.001m-7.607-61.937 25.559 45.433m-25.559-45.433 42.884 36.374-17.324 9.06m-25.56-45.434 25.56 45.434m-.001-.001 42.406 33.841m-42.406-33.841-17.952 16.504m60.358 17.337 16.552-2.285m-16.552 2.285 44.293 31.189m-44.293-31.189-25.08-42.901m25.08 42.901-17.925 6.247m17.925-6.247-42.405-33.84m42.405 33.84 23.93 34.431m-66.335-68.271-17.952 16.503m17.952-16.503 24.48 40.087m28.274-41.221-17.894-7.697m17.894 7.697 27.238 34.74m-27.238-34.74 24.556 13.32m-24.556-13.32 56.581 41.732m-74.475-49.429 45.132 42.437m-45.132-42.437-17.535-.23m17.535.23 24.097 40.386m21.035 2.051 29.343 6.992m-29.343-6.992-27.238-34.739 56.581 41.731m-29.343-6.992 62.518 31.192m-62.518-31.192-21.035-2.051m21.035 2.051 32.807 30.147m-35.489-51.567 32.025 28.412m-32.025-28.412 65.123 37.291m-33.098-8.879 33.175 24.2m-33.175-24.2 33.098 8.879m-33.098-8.879 61.344 24.485m-28.169-.285 28.169.285m-28.169-.285 53.54 8.688m-53.54-8.688-29.711-1.045m29.711 1.045 28.073 16.295m-28.15-31.616 28.246 15.606m-28.246-15.606 55.604 10.167-27.358 5.439m0 0 25.371 8.403m0 0-25.467 7.607m-153.258-90.154 41.632 40.616m0 0 27.741 33.474m-27.741-33.474 53.842 32.198m-53.842-32.198 27.741 33.475 26.101-1.277m-26.101 1.276 26.101-1.276m-26.101 1.276 57.603 20.543m-57.603-20.543-20.363 3.242m20.363-3.242 30.243 24.723m-4.142-25.999 31.502 21.819m-31.502-21.819 57.784 17.34m-26.282 4.479 26.282-4.479m-26.282 4.479 49.836 4.519m-49.836-4.519-27.36 4.18m27.36-4.18 26.316 13.158m-.034-17.637 23.554 8.998m0 0-23.52 8.639M380.072 261.362l15.739 29.084m0 0 17 24.483m-17-24.483 36.425.327m-19.425 24.156 19.425-24.156m-19.425 24.156 40.929 1.406m-40.929-1.406-24.105 12.149m24.105-12.149 16.762 13.254m2.663-37.41 21.504 25.562m-21.504-25.562 41.61 7.126m-20.106 18.436 20.106-18.436m-20.106 18.436 42.447 13.272m-42.447-13.272-24.167 11.848m24.167-11.848 18.888 17.819m1.218-36.255 22.341 31.708m0 0 20.092-8.124m-20.092 8.124-22.34-31.708m22.34 31.708 42.491 22.767m-42.491-22.767 19.557 21.925m-19.557-21.925-23.559 4.547m1.219-36.255 42.432 23.584m0 0 22.399 30.891m-22.399-30.891 41.855 28.184m-41.855-28.184 22.399 30.892m-149.972-25.297 16.512 10.993m-16.512-10.993 40.867 1.105m-24.355 9.888 24.355-9.888m-24.355 9.888 43.146 1.513m-43.146-1.513-23.843 9.555m23.843-9.555 19.308 12.45m5.047-22.338 18.791 11.401m-18.791-11.401 43.055 5.971m66.05 18.22-22.934-.842m0 0-23.374-1.037m23.374 1.037 20.637 17.567m-20.637-17.567-43.116-17.378m43.116 17.378 22.934.843m-22.934-.843 43.121 22.463m-110.501-34.411 24.264-5.43m-24.264 5.43 44.006 10.911m-44.006-10.911-23.838 10.937m23.838-10.937 20.994 14.914m-20.994-14.914 44.007 10.911m-19.743-16.341 19.742 16.341m0 0 44.011 18.604m0 0 22.484 4.896m-22.484-4.896 46.116 20.322m-46.116-20.322-22.117-2.844m22.117 2.844-44.01-18.604m44.01 18.604 22.794 15.477m-1.041-34.909-19.456 2.708m19.456-2.708 24.898 25.033m-24.898-25.033 50.606 21.481m-70.062-18.773 44.354 22.325m-44.354-22.325 20.187 21.62m-20.187-21.62 20.188 21.62m24.166.705 25.708-3.552m-25.708 3.552 53.957 12.043M583.032 374.7l-24.166-.705m24.166.705 26.196 15.623m-.488-19.175 28.249 15.595m-28.249-15.595 53.676 8.978m-25.427 6.617 25.427-6.617m-25.427 6.617 47.107 1.579m-47.107-1.579-27.761 3.58m27.761-3.58 24.791 9.585m.636-16.202 21.68 8.196m0 0-22.316 8.006m-102.915-22.333 23.632 15.426m0 0 26.731.902m-26.731-.902-23.631-15.426m23.631 15.426 53.441 10.912m-53.441-10.912-23.322-4.844m23.322 4.844 26.947 10.71m-26.947-10.71-23.322-4.845m-.309-10.581 50.362 16.328m0 0 26.71 10.01m-26.71-10.01 52.552 6.005m-25.842 4.005 25.842-4.005m-25.842 4.005 47.781 1.79m-47.781-1.79-26.494-.202m26.494.202 25.336 6.29m.506-10.295 21.939 5.795m0 0-22.445 4.5M33.058 296.013l-36.132 15.991m36.132-15.991 9.425 21.432m-9.425-21.432-36.133 15.991-8.149-26.257 44.282 10.266Zm0 0 44.771 10.067m-44.771-10.067 9.425 21.433 35.346-11.366m-80.903 5.924 45.557 5.441m-45.557-5.441-37.71 20.612m37.71-20.612 8.74 22.451m36.817-17.01L77.83 306.08m-35.347 11.365 45.86 4.107m-45.86-4.107-36.817 17.01m36.817-17.01 9.911 16.36M77.83 306.08l10.513 15.472M77.83 306.08l45.056 8.892m-45.057-8.892 45.056 8.892-34.542 6.58M77.83 306.08l10.514 15.472m0 0 34.543-6.58m-34.543 6.58 46.003 2.797m-46.003-2.797-35.949 12.253m35.95-12.253 10.939 10.132m23.603-16.712 11.46 9.377m-11.46-9.377 45.132 6.753m-33.672 2.624 33.672-2.624m-33.672 2.624 45.986 1.526m-45.986-1.526 11.872 4.77m-11.872-4.77-35.063 7.335m68.735-9.959 12.314 4.15m-12.314-4.15 45.007 3.657m-253.81 7.234 46.451 1.839m-46.45-1.839 46.45 1.84-38.441 19.975m-8.01-21.815 8.01 21.815m38.441-19.976-38.441 19.976m38.441-19.976 9.252 16.148m-9.252-16.148 46.728-.65m-85.17 20.626 47.694-3.828m-47.693 3.828-40.25 18.151m40.25-18.151 8.546 14.275m39.147-18.103 37.475-16.798-46.727.651 9.252 16.147Zm0 0 37.476-16.798m-37.476 16.798 47.83-6.455m-47.83 6.455-39.147 18.103m39.147-18.103 9.712 9.449m27.764-26.247 10.353 10.343m-10.353-10.343 46.889-2.121m81.049-5.809-34.114 3.244m34.114-3.244 32.693-.493m-32.693.493 45.626 1.073m-45.626-1.073 12.753 1.273m-46.867 1.971-35.576 7.966m35.576-7.966 12.313 2.324m-12.313-2.324-46.935 2.565m46.935-2.565 46.867-1.971m-130.338 17 36.536-12.464m-36.536 12.464 47.895-7.063m-47.895 7.063L24.63 360.052m38.117-15.904 10.78 5.484m25.756-17.948 11.359 5.401m0 0 47.889-5.642m-47.889 5.642-37.114 12.547m37.114-12.547 11.798 3.38m-11.798-3.38 47.89-5.642m-.001 0 34.554-4.295m-34.554 4.295 47.889-.107m6.605-5.954 12.933 1.566m-12.933-1.566 43.566 1.913m-30.633-.347 30.633.347m-30.633-.347 44.193 6.532m-44.193-6.532-32.872.2m32.872-.2 13.52 5.014m-13.52-5.014-32.873.2m63.506.147 13.56 6.185m-13.56-6.185 41.871 6.044m-41.871-6.044 13.559 6.185 28.312-.141m-28.311.141 28.311-.141m-28.311.141 43.292 10.385m-43.292-10.385-30.673-1.518m30.673 1.518 14.794 10.287m13.517-10.428 14.981 10.526m-14.981-10.526 41.242 7.667m-26.261 2.859 26.261-2.859m-26.261 2.859 43.216 10.766m-43.216-10.766 16.621 14.321m-16.621-14.321-28.498-.098m54.759-2.761 16.955 13.625m-16.955-13.625 41.671 6.62m-188.29-20.478 13.335 4.188m0 0 33.058.626m-33.058-.626-13.334-4.188m13.334 4.188 47.463 10.863m-47.463-10.863-35.078 4.248m35.078-4.248 13.883 10.631m-13.883-10.631-47.888.107m34.554-4.295 46.392 4.814m0 0 14.405 10.237m-14.405-10.237 45.467 11.805m71.714 10.864-26.595 3.555m26.595-3.555 24.716-7.005m-24.716 7.005 43.96 7.662m-43.96-7.662 18.765 16.3m-45.36-12.745-45.119-14.419m45.119 14.419-29.106.529m29.106-.529 17.939 17.609m-17.939-17.609 45.36 12.745m-121.541-28.732 31.062 1.568m-31.062-1.568 47.074 16.516m-47.074-16.516-33.58-.232m33.58.232 15.202 15.765m15.86-14.197 16.012 14.948m-16.012-14.948 45.118 14.419-29.105.529m-16.013-14.948 16.013 14.948m-.001 0-31.872-.751m31.873.751-31.873-.751m31.873.751 16.84 18.852m-16.84-18.852 47.045 17.08m-421.027-3.213 48.795-3.876m-48.795 3.876 7.764 10.66m41.03-14.536-41.03 14.536m41.03-14.536 8.957 7.35m-8.956-7.35 48.859-8.654m-89.89 23.19 49.987-7.186m-49.987 7.186-43.018 12.489m43.018-12.489 8.14 8.537m41.847-15.723 39.903-16.004m-39.903 16.004 49.992-10.562m-49.992 10.562-41.847 15.723m41.847-15.723 9.318 7.53m-9.318-7.53 49.992-10.561m-10.089-5.443 10.09 5.442m-10.09-5.442 48.898-10.42m-48.898 10.42 10.09 5.443m0-.001 38.808-15.862m-38.809 15.862 49.998-10.618M34.72 365.494l-40.674 18.092m40.674-18.092 10.496 8.454m28.313-24.316 11.19 5.244m-11.19-5.244L34.72 365.495m38.809-15.863 48.912-9.167m-37.722 14.411 37.722-14.411m-37.722 14.411-39.503 19.072m-10.496-8.453-40.674 18.091m128.395-43.121 36.092-9.022m-36.092 9.022L84.72 354.876m37.721-14.411 12.281 7.048m-12.281-7.048 48.902-4.881m-12.81-4.141 12.81 4.141m-279.62 60.147 51.158-3.952m-51.158 3.952 7.298 10.788 43.86-14.74m0 0 51.165-8.193m-51.165 8.193 8.533 9.65 42.632-17.843m0 0 51.17-9.638m39.504-19.072 50.002-7.363m-50.002 7.363 11.672 10.779M84.72 354.876l-39.504 19.072m89.506-26.435-38.33 18.142m38.33-18.142 36.621-11.929m-36.621 11.929 50.009.212m-50.009-.212 12.851 13.981m-51.181 4.161-51.176 8.293m51.176-8.293-40.176 20.937-11-12.644m51.176-8.293 51.181-4.161m-51.181 4.161 12.235 15.722 38.946-19.883M45.215 373.948 3.81 394.031l-9.767-10.445 51.17-9.638Zm126.127-38.364 13.388 12.141m-13.388-12.141 48.961 6.383m-35.573 5.758 35.573-5.758m-35.573 5.758-37.158 13.769m72.731-19.527-35.572 5.758m35.572-5.758 14.442 17.759m-14.442-17.759 48.782 15.997m-84.354-10.239 50.014 12.001m-50.014-12.001-37.159 13.769m37.159-13.769 14.028 19.8m35.986-7.799 34.34-1.762m-34.34 1.762 50.02 18.547m-50.02-18.547-35.986 7.799m35.986-7.799 15.207 21.95m19.133-23.712 15.68 20.309m-15.68-20.309 48.713 19.603m-33.033.706 33.033-.706m-33.033.706 50.025 19.197m-50.025-19.197 16.386 20.582m-16.386-20.582-34.813 3.403m67.846-4.109 30.205-1.772m-30.205 1.772 16.992 19.903m-16.992-19.903 48.769 17.306m-18.564-19.078 27.421-4.864m-27.421 4.864 47.371 12.543m-47.371-12.543 18.564 19.078m-218.995-33.379 51.187 6.031m-51.187-6.031 51.187 6.032m-51.187-6.032 13.47 20.063 37.717-14.031m0-.001 51.193 14.151m-51.193-14.15 51.193 14.15m-51.193-14.15 14.705 22.569 36.488-8.419m84.838 15.794-33.639 1.385m33.639-1.385 31.777-2.597m-31.777 2.597 50.031 13.959M334.79 397.47l17.565 16.634m-51.204-15.249-51.199-17.179m51.199 17.179-35.258 4.251-15.941-21.43m51.199 17.179 51.204 15.249m-51.204-15.249 17.176 17.708 34.028-2.459m29.02-66.478 19.244 14.667m-19.244-14.667 43.151 2.895m-23.907 11.772 23.907-11.772m-23.907 11.772-25.195 8.638m49.102-20.41-23.906 11.772m23.906-11.772 21.493 13.78m-21.493-13.78 44.832 3.977m-68.738 7.795 45.399 2.008m-45.399-2.008-25.196 8.638m25.196-8.638 20.991 15.414m24.408-13.406 23.339-9.803m-23.339 9.803 45.825 4.541m-45.825-4.541-24.408 13.406m24.408-13.406 22.396 13.36m.943-23.163 22.486 14.344m-22.486-14.344 23.013-4.003m-23.013 4.003 44.906 11.757m-22.42 2.587 22.42-2.587m-22.42 2.587 45.829 11.04m-45.829-11.04 23.359 12.168m-23.359-12.168-23.429 8.819m23.956-27.166 21.893 15.76m0 0 23.409 13.627m-23.409-13.627 44.911 18.321m-183.751-13.645 19.95 17.407m-19.95-17.407 46.187 6.776m-46.187-6.776 46.187 6.777m-46.187-6.777 19.95 17.408 26.237-10.631m-26.237 10.63 26.237-10.631m-26.237 10.631 47.864 2.597m-47.864-2.597-28.807 6.535m28.807-6.535 20.138 15.634m6.099-26.265 21.627 13.228m-21.627-13.228 46.804-.046m-46.804.047 46.804-.046m-46.804.046 21.627 13.228 25.177-13.274m69.258 2.22-22.47 1.128m22.47-1.128 21.502 4.694m-21.502-4.694 46.992 17.019m-46.992-17.019 24.323 12.494m-46.793-11.366-24.161 7.793m24.161-7.793 23.648 10.94m-23.648-10.94-46.788-3.349m46.788 3.349-46.788-3.348m46.788 3.348 46.793 11.366m-118.758-1.441 25.177-13.274m-25.177 13.274 47.804-2.132m-47.804 2.132-27.726 13.037m27.726-13.037 21.199 10.59m3.978-23.864 22.627 11.142m0 0 47.809 3.147m-47.809-3.147-22.627-11.141m22.627 11.141-26.605 12.722m26.605-12.722 22.291 9.818m25.518-6.671 23.145.426m-23.145-.426 47.972 13.517m-47.972-13.517-25.518 6.671m25.518-6.671 23.385 13.212m-3.061-20.586 25.49 12.325m0 0 24.779 3.23m-24.779-3.23 51.496 10.99m-51.496-10.99-22.668-4.525m22.668 4.525 26.411 10.133m-26.411-10.133-22.669-4.525m-2.821-7.799 50.269 15.554m-50.269-15.554 25.49 12.325 24.779 3.229m0 0 26.717 7.76m-26.717-7.76 51.83 6.492m-25.113 1.268 25.113-1.268m-25.113 1.268 48.013 2.363m-48.013-2.363-25.085-.857m25.085.857 24.88 6.042m.233-7.31 22.9 3.631m0 0-23.133 3.679m-99.045-21.557 24.827 13.091m0 0 24.253 1.567m-24.253-1.567-24.826-13.091m24.826 13.091 49.565 11.058m-49.565-11.058-24.587-.305m24.587.305 24.464 13.532m-49.29-26.623 49.079 14.658m0 0 25.312 9.491m-25.312-9.491 49.965 6.899m-24.653 2.592 24.653-2.592m-24.653 2.592 48.263 2.958m-48.263-2.958-25.101 2.474m25.101-2.474 24.133 9.858m.52-12.45 23.61 5.55m0 0-24.13 6.9m-293.954-31.51 18.254 16.556m-18.254-16.556 48.945 9.099m-30.691 7.457 30.691-7.457m-30.691 7.457 50.045 3.001m-50.045-3.001-32.466 2.675m32.466-2.675 18.744 11.047m-18.744-11.047-50.03-13.959 17.564 16.634m63.157-10.132 19.354 10.458m-19.354-10.458 48.925-2.447m-29.571 12.905 29.571-12.905m-29.571 12.905 50.064-4.051m-50.064 4.051-31.301 8.046m31.301-8.046-50.044-3.001 18.743 11.047m31.301-8.046 19.943 6.425m9.628-19.33 20.493 8.854m-20.493-8.854 48.896-2.904m-28.403 11.758 28.403-11.758m-28.403 11.758 50.07-.03m-50.07.03 21.135 7.688m-21.135-7.688-30.121 10.476m58.524-22.234L535 410.349m-21.667-11.728 48.903 6.541m-48.903-6.541L535 410.35m-182.645 3.754 51.21 8.372m0 0-32.798 3.972-18.411-12.343 51.209 8.371Zm0 0 51.244-1.621m-51.244 1.621 19.653 6.268 31.591-7.889M535 410.349l-28.935 7.718M535 410.349l27.236-5.187M535 410.349l50.051 11.713m-78.986-3.995-51.256 2.788m51.256-2.788-30.384 7.916-20.872-5.128m51.256-2.788L535 410.35m-28.935 7.717 51.26 4.853m-51.26-4.853 22.087 7.876 29.173-3.023m4.911-17.758 22.815 16.9m-22.815-16.9L535 410.35m27.236-5.188 49.051 13.837m-49.051-13.837L611.287 419m-26.236 3.062L611.287 419m-26.236 3.062 26.236-3.063m-26.236 3.063L635.081 433m-50.03-10.938-27.726.858m27.726-.858 23.466 12.431m-23.466-12.431L535 410.35m0 0 22.325 12.57m53.962-3.921L635.081 433m-23.794-14.001 49.234 7.384M611.287 419l49.234 7.383M611.287 419l23.794 14m0 0 25.44-6.617M635.081 433l50.041 3.263M635.081 433l-26.564 1.493M635.081 433l24.632 8.3m.808-14.917 24.601 9.88m0 0-25.409 5.037m-102.388-18.38 51.192 11.573m-51.192-11.573 23.29 11.097 27.902.476m0 0 51.196 6.807m-51.196-6.807 24.552 7.21 26.644-.403m30.126-100.261-27.357 5.44m27.357-5.44 25.429 4.82m-25.429-4.82 51.776-2.516m-79.133 7.956 52.786-.62m-52.786.62 25.371 8.402m27.415-9.022-27.415 9.022m27.415-9.022 19.262 4.008m-19.262-4.008 26.347-7.336m-26.347 7.336 42.652-6.558m-70.067 15.58 46.677-5.014m-46.677 5.014-25.468 7.608m25.468-7.608 22.636 6.249m-22.636-6.249 22.636 6.25m24.041-11.264 23.39-10.565m-23.39 10.565-19.262-4.007 42.652-6.558m-23.39 10.565 23.39-10.566m-23.39 10.566 36.415-9.587m-36.415 9.587-24.041 11.263m24.041-11.263 14.86 3.609m-14.86-3.609-24.041 11.264m31.126-22.608 16.305.778m-16.305-.778 38.686-7.282m-22.381 8.06 13.025.979m-13.025-.979 22.381-8.06m-22.381 8.06 33.887-11.484m-33.887 11.485 33.887-11.485m-33.887 11.485 13.025.978m0 0 20.862-12.463m-20.862 12.463 32.396-13.308m-32.396 13.308-21.555 13.196m21.555-13.196 11.827 2.163m-2.471-11.202 11.506-3.424m-11.506 3.424 30.993-13.934m-19.487 10.51 11.534-.845m-11.534.845 19.487-10.51m-19.487 10.51 30.941-16.922m-19.407 16.077 19.407-16.077m-19.407 16.077 34.622-16.166m-34.622 16.166 13.964 3.287m-13.964-3.287-20.569 15.471m28.522-25.136 11.454-6.412m-11.454 6.412 28.697-22.463m-17.243 16.051 17.243-16.051m-17.243 16.051 15.215-.089m-15.215.089 33.817-22.86m-16.574 6.809 16.574-6.809m-16.574 6.809 31.146-29.643m-208.752 97.288 48.104-1.359m-48.104 1.359 23.554 8.997m24.55-10.356-24.55 10.356m24.55-10.356 17.113 5.258m-17.113-5.258 38.901-7.654m-63.451 18.01 41.663-5.098m-41.663 5.098-23.52 8.64m23.52-8.64 19.89 6.72m21.773-11.818 21.788-12.912m-21.788 12.912-17.113-5.257m17.113 5.257 34.223-9.507m-34.223 9.507-21.773 11.818m21.773-11.818 13.465 3.675m8.323-16.587-38.901 7.655m38.901-7.655 12.435 3.405m-12.435-3.405 33.382-11.033m55.191-31.637-20.658 19.453m20.658-19.453 18.602-22.771m-18.602 22.771 40.895-16.796m-40.895 16.796 21.694 8.36m-42.352 11.093-21.607 16.296m21.607-16.296 19.006 8.757m-19.006-8.757-34.533 12.184m34.533-12.184 42.352-11.093m-97.832 37.715 20.947-14.438m-20.947 14.438 33.873-10.326m-33.873 10.326-20.758 13.182m20.758-13.182 12.204 3.179m8.743-17.617 12.926 4.112m0 0 40.613-7.539m-40.613 7.539-21.669 13.505m21.669-13.505 16.532 6.612m24.081-14.151 23.346-19.85m-23.346 19.85 50.186-2.709m-50.186 2.709-24.081 14.151m24.081-14.151 26.876 15.347m-26.876-15.347 50.186-2.708m-29.932-48.273 22.293 5.975m-22.293-5.975 14.572-22.834m-14.572 22.834 18.487-11.259 11.525 13.539m-7.719 3.695 6.059-6.042 1.66 2.347m-7.719 3.695 6.059-6.043 1.66 2.348m-7.719 3.695 24.979 26.729m-24.979-26.729-19.201 25.156m19.201-25.156 18.468 25.885m-26.189-54.694 15.44 25.114m-15.44-25.114 16.175 48.14m-.735-23.026 17.26 30.424m-17.26-30.424.735 23.026m-.735-23.026 17.197 34.821 8.065 2.095m-25.262-36.916 25.262 36.916m-8.002-6.492 8.002 6.492m-8.002-6.492 11.626 6.107 30.252-23.973m-41.878 17.866-2.977-2.39-3.534 1.546m6.511.844 23.813 5.783m-23.813-5.783 8.599 5.73 33.279-23.596m-58.403 10.468 24.527 13.89m-24.527-13.89 8.51 15.508 12.596.132 18.686-17.754-15.265 16.004m0 0 33.876-24.358m-33.876 24.358 15.266-16.005m-15.266 16.005 54.602-59.365m-20.726 35.007 20.726-35.007m-20.726 35.007 56.845-70.976m-56.845 70.976 32.276-30.937m-32.276 30.937-18.065 23.649m-.545-15.296 39.336-43.36m-39.336 43.36 63.475-86.636m-63.475 86.636 39.337-43.361m-.001.001 36.119-35.969m-36.118 35.968 24.138-43.275m-24.138 43.275 65.268-88.235m-65.268 88.235 36.118-35.968m-11.98-7.307 41.13-44.96m-41.13 44.96 70.02-98.22M859.657 319.166l26.84 17.141m-26.84-17.141 37.669.729m-37.669-.729 26.84 17.142m0-.001 10.829-16.412m-10.829 16.412 30.544 1.094m-19.715-17.506-10.829 16.413m10.829-16.413 19.715 17.506m-19.715-17.506 30.324 6.627m-41.153 9.786-23.31 18.055m23.31-18.055 21.048 17.508m-21.048-17.508 30.544 1.093m85.519-105.504-24.569 40.039m24.569-40.039 29.15-52.267m-29.15 52.267 58.04-64.064m-58.04 64.064 27.46-10.262m-52.029 50.301-50.341 54.586m50.341-54.586-20.114 30.069m20.114-30.069 27.199-12.702m-27.199 12.702 52.029-50.301m-52.029 50.301 52.029-50.3-24.83 37.598m-88.149 78.167 10.609-10.879m-10.609 10.879 40.835-35.396m-40.835 35.396-9.496 16.415m9.496-16.415 24.427-7.634m-13.818-3.245 30.226-24.517m-30.226 24.517 50.341-54.585-20.115 30.068m0 0-16.408 27.762m16.408-27.762 29.14-20.715m-324.597 98.836 43.41-1.92m-43.41 1.92 21.68 8.196m21.73-10.116-21.73 10.116m21.73-10.116 15.018 3.764m-15.018-3.764 35.238-8.143m-56.968 18.259 36.748-6.352m-36.748 6.352-22.315 8.006m22.315-8.006 18.088 4.88m18.66-11.232 20.22-11.907m-20.22 11.907 32.123-10.626m-32.123 10.626-18.66 11.232m18.66-11.232 14.156.768m6.064-12.675 11.903 1.281m-11.903-1.281 32.962-10.003m-21.059 11.284 21.059-11.284m-21.059 11.284 35.433-8.569m-35.433 8.569-17.967 11.394m17.967-11.394 15.363.45m5.696-11.734 14.374 2.715m-14.374-2.715 38.201-6.893m-23.827 9.608 23.827-9.608m-23.827 9.608 46.686-.167m-46.686.167 21.675 4.562m-21.675-4.562-20.07 9.019m43.897-18.627 22.859 9.441m-22.859-9.441 50.957 1.196m-201.403 41.965 40.403-3.126m-40.403 3.126 21.937 5.795m18.466-8.921-18.466 8.921m18.466-8.921 19.109 2.488m-19.109-2.488 32.816-10.464m-51.282 19.385 37.575-6.433m-37.575 6.433-22.443 4.5m22.443-4.5 20.697 2.562m16.878-8.995 13.707-12.952m-13.707 12.952-16.878 8.995m30.585-21.947-13.706 12.952m13.706-12.952 20.947 3.47m-20.947-3.47 33.33-10.944m-33.33 10.944 20.947 3.471m79.139-23.601-25.011 4.729m25.011-4.729 28.098-8.245m-28.098 8.245 59.639 11.12m-59.639-11.12-25.01 4.729m25.01-4.729 33.04 13.716m-58.051-8.987-15.705 11.997m15.705-11.997 33.167 13.375-48.872-1.378m15.705-11.997-41.745 4.457m-47.036 23.896 34.653-9.482m-34.653 9.482-16.879 8.995m16.879-8.995 20.894 2.624m13.759-12.106 12.383-14.414m-12.383 14.414 38.423-6.874m-38.423 6.874-13.759 12.106m13.759-12.106 24.354 5.781m-11.971-20.195 26.04 7.54m-26.04-7.54-12.383 14.415m38.423-6.875-14.069 12.655m14.069-12.655 29.855 10.707m-29.855-10.707 48.873 1.378m-87.296 5.497-13.759 12.105m13.759-12.105 24.354 5.78m82.883-37.626 31.541 19.365m-31.541-19.365 44.358-.547m-12.817 19.912 12.817-19.912m-12.817 19.912 36.265-20.521m-36.265 20.521-26.599 2.596m26.599-2.596 24.431 2.918m-11.614-22.83 23.448-.609m-23.448.609 33.923-24.049m-10.475 23.44 10.475-23.44m-10.475 23.44 40.431-51.248m-40.431 51.248-11.834 23.439m11.834-23.439 27.044-21.474m-16.569-1.966 29.956-27.808m-29.956 27.808 45.548-48.477m-15.592 20.669 15.592-20.669m-15.592 20.669 40.636-22.354m-40.636 22.354 31.266-18.579m-31.266 18.579-13.387 29.774m28.979-50.443 18.174-22.056m-18.174 22.056-29.139 20.715m29.139-20.715 25.044-1.685m-25.044 1.685 38.724-9.893m-67.863 30.608 47.313-42.771m0 0 24.83-37.599m-24.83 37.599 43.09-17.173m-43.09 17.173 20.55 12.163m-215.661 95.94 58.05 8.987m-58.05-8.987 33.167 13.375m24.883-4.388-24.883 4.388m24.883-4.388 35.664 15.961m-35.664-15.961 51.03.322m-75.913 4.066 60.547 11.573m-60.547-11.573-19.018 9.329m19.018-9.329 36.176 16.08m24.371-4.507 15.366-15.639m-15.366 15.639 40.941-27.172m-40.941 27.172-24.371 4.507m24.371-4.507 26.132 2.104m-10.766-17.743 25.575-11.533m-25.575 11.533 38.878-44.913m54.023-52.128-5.4-.607-3.97 4.382m9.37-3.775 13.68-8.208m-13.68 8.208 30.87 22.12m-30.87-22.12 22.57 15.536m-31.94-11.761-15.522 31.154m15.522-31.154 24.98 16.87m-24.98-16.87-44.653 48.353m44.653-48.353-31.265 18.579-13.388 29.774m44.653-48.353 31.94 11.761m-89.896 69.972 13.303-33.38m-13.303 33.38 42.433-50.578m-42.433 50.578-14.809 29.276m14.809-29.276 27.235-6.797m-13.932-26.583 29.13-17.198m-29.13 17.198 29.131-17.199m-.001.001-15.198 43.781m15.199-43.782 40.502-14.284m-40.502 14.284-15.199 43.782m15.199-43.782 30.032 9.672m10.47-23.956 4.79-5.48 2.17.371m-6.96 5.109 31.01 27.47m-31.01-27.47-10.47 23.956m10.47-23.956 25.72 33.788m-21.68-154.408 28.89-11.797m-28.89 11.797 28.89-53.26m-28.89 53.26 59.38-68.972m-30.49 57.175 30.49-57.175m-30.49 57.175 47.02-30.251m-47.02 30.251-30.58 53.802m30.58-53.802 17.16 24.697m-17.16-66.16 30.49-15.712m-30.49 15.712L1111.42 76m-20.33 34.658 16.53 26.924m-16.53-26.924L1111.42 76m-20.33 34.658 42.22-13.88m-25.69 40.804 25.69-40.804m-25.69 40.804 42.86 2.664m-42.86-2.664-29.86 54.948m29.86-54.948 13.35 50.786m-13.35-50.786 42.86 2.665M1111.42 76l21.89 20.778M1111.42 76l40.21 1.195m-18.32 19.583 17.17 43.468m-17.17-43.468 18.32-19.583m-18.32 19.583 40.69 12.384m-40.69-12.384 17.17 43.469m0-.001 23.52-31.084m-23.52 31.084 44.28 10.674m-44.28-10.674 18.12 48.034m-18.12-48.034-29.51 48.122m30.66-111.173 22.37 31.967m-22.37-31.967 38.17 23.039m-15.8 8.928-23.52 31.085m23.52-31.085 15.8-8.928m-15.8 8.928 20.76 41.758M1174 109.162l40.24 23.018m-63.76 8.067-29.51 48.121m68.83-88.134 24.44 31.946m-24.44-31.946 36.99 32.231m-196.77 89.17 18.26 20.426m-18.26-20.426 47.74-29.105m-29.48 49.531 29.48-49.531m-29.48 49.531 40.7.983m-40.7-.983-22.54 29.336m22.54-29.336 13.39 42.76m16.09-92.291 11.22 50.514m-11.22-50.514 43.21-4.162m73.79-37.448-26.16 37.36m26.16-37.36 19.48-18.74m-19.48 18.74 44.26 14.174m-44.26-14.174 23.34 38.13m-49.5-.77-30.77 50.209m30.77-50.209 22.95 39.803-53.72 10.406m30.77-50.209-47.63.088m47.63-.088 49.5.77m-49.5-.77 22.95 39.802m-102.57 14.962 31.99-54.676m-31.99 54.676 48.85-4.555m-48.85 4.555-27.31 41.777m27.31-41.777 17.31 47.368m14.68-102.044 16.86 50.121m0 0-31.54 51.923m31.54-51.923 23.93 37.281m-23.93-37.281 53.72-10.407m22.69-95.902 24.78 32.914m-24.78-32.914 12.55.285m12.23 32.629-20.92 23.956m8.69-56.585-12.55-.284m12.55.284 26.95 24.807m-26.95-24.807 36.67 28.81m-49.22-29.094 39.5 25.091m-39.5-25.091 24.78 32.914 14.72-7.823m0 0-14.72 7.822m14.72-7.822 28.11 21.025m-28.11-21.025 9.72 4.003m-9.72-4.003 38.47 18.643m-53.19-10.821 42.83 13.203m-42.83-13.203-20.92 23.956m20.92-23.956 27.86 25.164m14.97-11.961 10.36-2.382m-10.36 2.382 39.94 7.798m-39.94-7.798-14.97 11.961m14.97-11.961 30.52 13.227m-48.91-30.249 28.75 14.64m-28.75-14.64 37.2 12.816-8.45 1.824m0 0 29.58 10.18m0 0-9.42 5.429m-94.27-2.474-26.55 39.032m26.55-39.032 28.32 26.407m-28.32-26.407 48.78 1.208m-48.78-1.208 48.78 1.209m-75.33 37.823 54.87-12.625m-54.87 12.625-29.79 47.688m29.79-47.688 29.86 24.101m25.01-36.726 20.46-25.198m-20.46 25.198 20.46-25.199m-20.46 25.199 52.33-11.175m-52.33 11.175-25.01 36.726m25.01-36.726 33.95 11.916m-13.49-37.115 31.87 14.024m-31.87-14.024 45.49 1.266m-45.49-1.265 45.49 1.266-13.62 12.757m-31.87-14.023 31.87 14.023m0 0 13.62-12.758m-13.62 12.758 46.04-6.015m-46.04 6.015-18.38 23.091m18.38-23.091 35.04 4.818m-21.42-17.576 32.42 6.743m0 0-11 10.833m-308.05 62.297 17.19 30.328m-17.19-30.328 35.93 13.424m-18.74 16.904 18.74-16.904m-18.74 16.904 36.71 25.822m-36.71-25.822-3.93-.663-4.37-5.921m8.3 6.584 22.13 29.501m-3.39-46.405 17.97 42.726m-17.97-42.726 44.62 5.591m-26.65 37.135 26.65-37.135m-26.65 37.135 53.28-7.223m-53.28 7.223-8.99 5.761-5.59-2.082m14.58-3.679 31.58 16.484m-4.93-53.619 26.63 29.912m-26.63-29.912 55.47-14.642m-55.47 14.642 26.64 29.913m-.01-.001-21.7 23.707m50.54-68.261-28.83 44.555m28.83-44.555 32.77 17.593m-32.77-17.593 59.65-23.587m-88.48 68.142 61.6-26.962m-61.6 26.962-21.71 23.706m21.71-23.706 37.63 4.793m-135.93-29.977 24.05 32.579m-24.05-32.579 30.43 36.085m-6.38-3.506 6.38 3.506m-6.38-3.506 38.03 27.381m-38.03-27.381-5.29 6.318m5.29-6.318 29.79 33.904m-23.41-30.398 31.65 23.875m-31.65-23.875 46.16 12.805m83.31-50.668-23.97 31.755m23.97-31.755-61.6 26.961 37.63 4.794m23.97-31.755 26.88-41.18m-26.88 41.18 63.95-34.927m-63.95 34.927 41.26-3.914m-65.23 35.669-19.52 23.372m19.52-23.372 42.54-4.391m-42.54 4.391-59.34 18.913m59.34-18.913 65.23-35.669m-139.08 65.652 14.51-11.07m-14.51 11.07 54.33-6.611m-54.33 6.611-8.24 6.523m8.24-6.523 38.91 15.467m-24.4-26.537 39.82 4.459m0 0 62.06-27.763m-62.06 27.763-15.42 22.078m15.42-22.078 41.87 4.287m20.19-32.05 22.69-31.278m-22.69 31.278 64.28-36.23m-64.28 36.23-20.19 32.05m20.19-32.05 41.17 1.404m-32.86-69.948 37.07 6.253m-37.07-6.253 58.96-24.81m-58.96 24.81 37.07 6.254 21.89-31.064m-21.89 31.063-22.69 31.013m44.58-62.076-21.89 31.063m21.89-31.063 38.39-.016m-38.39.016 53.42-18.273m-75.31 49.336 60.28-31.079m-60.28 31.079-22.69 31.012m22.69-31.012 41.9-7.178m18.38-23.901 15.03-18.257m-15.03 18.257 50.6-15.381m-50.6 15.381-18.38 23.901m18.38-23.901 39.08-2.589m-24.05-15.668 35.57 2.876m0 0-11.52 12.792m-122.05 64.681 41.59-4.952m0 0 23-33.239m-23 33.239-41.59 4.951m41.59-4.951 61.01-32.027m-61.01 32.027-23.11 37.634m23.11-37.634 37.83 5.253m-79.42-.302 64.59-38.19m0 0 38.01 1.212m-38.01-1.212 57.46-26.49m-19.45 27.702 19.45-27.702m-19.45 27.702 52.22-15.168m-52.22 15.168-38.01-1.211 57.46-26.491m-19.45 27.702-23.18 37.28m23.18-37.28 32.82 14.269m-13.37-41.971 32.77 12.534m0 0-19.4 29.437M661.278 406.623l43.14-1.938m-43.14 1.938 22.9 3.63m20.24-5.568-20.24 5.568m20.24-5.568 21.532 2.73m-21.532-2.73 37.773-6.371m-37.773 6.371 21.533 2.73m-41.773 2.838 41.772-2.838m-41.772 2.838-23.134 3.68m23.134-3.68 22.556 3.694m19.216-6.532-19.216 6.532m35.457-15.633-16.24 9.101m16.24-9.101 23.662 5.064m-23.662-5.064 38.113-6.325m-54.353 15.426 39.902-4.037m-39.902 4.037-19.217 6.532m19.217-6.532 23.66 5.297m16.242-9.334 14.451-11.389m-14.451 11.389 42.292-2.214m-42.292 2.214-16.242 9.334m16.242-9.334 26.819 8.685m-12.368-20.074 27.841 9.175m-27.841-9.175 43.924-1.948m-43.924 1.948 43.924-1.947m-16.083 11.122 16.083-11.122m-16.083 11.122 16.083-11.123m-16.083 11.123 48.93 2.617m-48.93-2.617 30.811 12.532m-30.811-12.532-15.473 10.899m31.556-22.022 32.847 13.74m-32.847-13.74 55.194 6.751m-55.194-6.75 55.194 6.75m-55.194-6.75 32.847 13.739m-196.031 10.152 45.69.014m-45.69-.014 23.61 5.549m22.08-5.535-22.08 5.535m22.08-5.535 24.041 6.389m-24.041-6.389 42.877-1.235m-42.877 1.235 24.041 6.39m-46.121-.855 46.121.854m-46.121-.854-24.128 6.901m24.128-6.901 24.498 8.247m21.623-7.393 18.836-7.624m-18.836 7.624 45.317 1.521m-45.317-1.521-21.623 7.393m21.623-7.393 26.524 10.463m-7.688-18.087-18.836 7.625m18.836-7.625 26.481 9.145m-26.481-9.145 43.061-.649m-61.897 8.274-21.623 7.392m21.623-7.392 26.524 10.462m99.776-27.018-18.119 9.915m18.119-9.915 22.347-6.989m-22.347 6.989 56.425 8.415m-56.425-8.415 34.418 15.515m-52.537-5.6-16.52 10.734m16.52-10.734 32.667 14.732m-32.667-14.732-46.284-1.633m46.284 1.633 52.537 5.6m-52.537-5.6 52.537 5.601m-115.401 2.56 16.58-9.794m-16.58 9.794 46.344 2.573m-46.344-2.573-18.793 8.942m18.793-8.942 29.4 13.151m-12.82-22.945 29.764 12.367m0 0 49.187 3.998m-49.187-3.998-16.944 10.578m16.944-10.578 31.902 14.989m17.285-10.991 19.87-9.132m-19.87 9.132 52.423 5.604m-52.423-5.604 19.87-9.131m-19.87 9.131-17.285 10.991m17.285-10.991 32.814 14.653m-32.814-14.653 32.815 14.653m-25.016-46.289 34.078 15.404m-34.078-15.404 50.503-2.403m-50.503 2.403 34.079 15.404m-.001 0-22.007 7.1m22.007-7.1 27.98 8.773m-27.98-8.773 43.937-16.415m-27.512-1.392-16.424 17.807m16.424-17.807 27.512 1.392m-27.512-1.392 42.044-36.073m-58.468 53.88 43.936-16.415m0 0 14.532-37.465m-14.532 37.465 44.793-32.432m-44.793 32.432-15.957 25.188m15.957-25.188 29.293 7.729m-14.761-45.194 30.261 5.033m-30.261-5.033 45.231-34.11m-14.97 39.143 14.97-39.143m-14.97 39.143 43.41-10.063m-43.41 10.063 31.64 19.975m-31.64-19.975-15.5 40.161m30.47-79.304 28.44 29.08m-28.44-29.08 36.19 9.832m-161.897 85.258 32.553 14.736m-32.553-14.736 49.987 1.673m-17.434 13.063 17.434-13.063m-17.434 13.063-32.553-14.735m32.553 14.735 47.04-3.938m-47.04 3.938-19.609 9.049m19.609-9.049 29.983 10.297m-29.983-10.297-19.608 9.049m-12.945-23.784 49.987 1.672m0 0 29.606 9.125m-29.606-9.125 45.25-17.459m-45.25 17.459 45.25-17.458m58.91-50.225-11.77 30.038m11.77-30.038 7.75-19.248m-7.75 19.248 37.45 16.801m-37.45-16.801-11.77 30.038 42.41 2.256m-30.64-32.294 30.64 32.294m-42.41-2.256-47.14 20.186m-15.644 26.584 15.644-26.584m-15.644 26.584 47.444-13.328m-47.444 13.328 15.644-26.583m-15.644 26.583-17.057 14.235m17.057-14.235 31.584 9.1m-15.94-35.684 31.8 13.256m0 0 15.34-33.441m-15.34 33.441-31.8-13.255m31.8 13.255-15.86 22.428m15.86-22.428 33.42 13.158m-33.42-13.158 47.41-9.285m-79.21-3.97 47.14-20.186m0 0 32.07 24.156m-32.07-24.156 42.41 2.255m-415.754 40.803 48.626 1.346m-48.626-1.346 24.6 9.879m24.026-8.533-24.026 8.533m24.026-8.533 26.042 11.04m-26.042-11.04 48.147 3.07m-72.173 5.463 50.068 2.507m-50.068-2.507-25.409 5.038m25.409-5.038 25.824 6.522m24.244-4.015 22.105-7.97m-22.105 7.97 50.076 5.083m-50.076-5.083-24.244 4.015m24.244-4.015 27.007 9.433m-4.902-17.403 27.971 13.053m-27.971-13.053 48.193 4.209m-20.222 8.844 20.222-8.844m-20.222 8.844 50.08 5.68m-50.08-5.68-27.97-13.053 48.192 4.209m-20.222 8.844-23.069 4.35m23.069-4.35 28.186 11.983m-7.964-20.827 29.858 14.524m-29.858-14.524 48.846 4.411m-18.988 10.113 18.988-10.113m-18.988 10.113 50.085 4.291m-50.085-4.291 29.368 13.394m-29.368-13.394-21.894 6.303m40.882-16.416 31.097 14.404m-31.097-14.404 50.099 3.662m-244.72-1.781 51.233 1.484m-51.233-1.484 25.822 2.898 25.411-1.414m0 0 51.251 5.418m-51.251-5.418 27.071 6.295 24.18-.877m0 0 51.255 7.633m-51.255-7.633 28.309 10.362 22.946-2.729m71.979-2.012-20.717 9.103m20.717-9.103 19.002-10.742m-19.002 10.742 50.16.956m-50.16-.956 30.55 12.888m-51.267-3.785-51.262-7.091m51.262 7.091-21.714 6.202-29.548-13.293m51.262 7.091 51.267 3.785m-51.267-3.785 30.787 14.31 20.48-10.525m-11.548-23.63 31.158 11.698m-31.158-11.698 49.592 1.248m-18.434 10.45 18.434-10.45m-18.434 10.45-31.157-11.698m31.157 11.698 50.514-4.096m-50.514 4.096-19.61 11.932m19.61-11.932 32.415 9.617m-13.981-20.067-49.591-1.248m49.591 1.248 32.08 6.354m-32.08-6.354 48.641-5.135m-16.561 11.489 16.561-11.489m-16.561 11.489 50.531-7.989m-50.531 7.989-18.099 13.713m18.099-13.713 34.221 4.458m-17.66-15.947 33.97 3.5m-33.97-3.5 49.28-9.27m-15.31 12.77 15.31-12.77m-15.31 12.77 51.22-10.431m-51.22 10.431 36.42-.847m-36.42.847-16.31 12.447m31.62-25.217 13.99-22.443m-13.99 22.443 35.91 2.339m-21.92-24.782 10.34-21.901m-10.34 21.901 45 2.582m-45-2.582-13.99 22.442 48.86-6.667m-34.87-15.775 34.87 15.775m-184.825 43.455 52.025-2.315m-52.025 2.315 32.286 12.535 19.739-14.85m0 0 52.32-9.255m-52.32 9.255 34.33 6.83 17.99-16.085m67.53-22.878-14.8 9.584m14.8-9.584 12.95-9.007m-12.95 9.007 51.5-9.429m-51.5 9.429 38.55-4.54m-53.35 14.124-52.73 13.294m52.73-13.294-16.75 14.39-35.98-1.096 52.73-13.294Zm0 0 14.8-9.585m-14.8 9.585 53.35-14.124m-53.35 14.124 37.94-3.7 15.41-10.424m-73.02-93.685 29.7 36.049m-29.7-36.049 35.08 27.586m-5.38 8.463 5.38-8.463m-5.38 8.463 41.73 18.288m-41.73-18.288-6.81 15.493m6.81-15.493 34.92 28.826m-29.54-37.289 36.35 26.751m-36.35-26.751 47.15 8.944m-10.8 17.807 10.8-17.807m-10.8 17.807 52.17-7.141m-52.17 7.141-6.81 10.538m6.81-10.538 40.76 14.568m-29.96-32.375 41.37 10.666m-41.37-10.666 57.29-17.791m-15.92 28.457 15.92-28.457m-15.92 28.457-41.37-10.665 57.29-17.792m-15.92 28.457 57.09-22.824m-57.09 22.824 41.3 7.558m-41.3-7.558-11.41 21.709m27.33-50.166 41.17 5.633m-41.17-5.633 61.36-30.646m-177.99 63.449 34.66 24.483m-34.66-24.483 41.73 13.333m-7.07 11.15 7.07-11.15m-7.07 11.15 46.49 5.899m-46.49-5.899-10.13 13.193m10.13-13.193 38.54 10.818m-31.47-21.968 39.42 17.049m-39.42-17.049 47.57 4.03m-47.57-4.03 39.42 17.049 8.15-13.019m68.5-44.533-15.79 30.382m15.79-30.382 20.19-36.279m-20.19 36.279 58.5-28.939m-58.5 28.939-41.17-5.633 61.36-30.646m-20.19 36.279 39.18 7.297m-39.18-7.297 58.5-28.938m-74.29 59.32-11.36 21.158m11.36-21.158 40.23 4.95m-40.23-4.95-52.71 14.151m52.71-14.151 54.97-23.085m-115.83 50.255 8.15-13.019m-8.15 13.019 49.5-6.012m-49.5 6.012-7.95 4.919m7.95-4.919 41.03 3.805m-32.88-16.824 41.35 7.007m0 0 51.59-16.208m-51.59 16.208-8.47 9.817m8.47-9.817 41.15.124m10.44-16.332 14.74-28.035m-14.74 28.035 52.19-19.951m-52.19 19.951-10.44 16.332m10.44-16.332 39.62 1.643m-43.87-73.254 38.31 7.34m-38.31-7.34 60.94-32.381m-60.94 32.381 60.94-32.38m-60.94 32.38 38.31 7.341m0-.001 22.63-39.721m-22.63 39.721 56.42-25.498m-56.42 25.498 35.42 12.22m-12.79-51.941 33.79 14.223m-33.79-14.223 56-23.011m-78.63 62.733 22.63-39.721m-22.63 39.721-19.32 36.235m19.32-36.235 35.42 12.219m-12.79-51.94 56-23.011-22.21 37.234-33.79-14.223Zm33.79 14.222 22.21-37.234M1349 303.973l50.86-12.519M1349 303.973l-21 37.718m21-37.718 31.01 20.759m-8.8-57.993 28.65 24.715m0 0-19.85 33.278m-106.75 40.975 37.45 8.084m-37.45-8.084 54.74-24.016m-54.74 24.016 37.45 8.084m0 0-12.57 21.594m29.86-53.694-17.29 32.1m17.29-32.1 34.02 14.844M1328 341.691l52.01-16.959m-69.3 49.059 51.31-17.256m-51.31 17.256-12.57 21.594m12.57-21.594 37.44 6.796m13.87-24.052 17.99-31.803m-17.99 31.803 48.95-8.138m-48.95 8.138-13.87 24.052m13.87-24.052 35.62 14.018m-17.63-45.821 30.96 23.665m0 0-13.33 22.156m-296.83 52.703 38.55-.422m-38.55.422-12.95 9.006m12.95-9.006-48.86 6.668 35.91 2.338m12.95-9.006 48.67-2.375m-10.12 1.953 10.12-1.953m-10.12 1.953 51.07-3.971m-51.07 3.971-12.95 4.889m12.95-4.889 40.44-4.835m-91.94 14.263 38.55-4.539m23.07-6.842 40.95-2.018m-40.95 2.018 48.98-1.114m-8.03-.904 8.03.904m-8.03-.904 49.58-4.118m-49.58 4.118-10.63-.864m10.63.864 40.68-2.842m-32.65 3.746 41.55-5.022m-41.55 5.022 49.62-9.693m-49.62 9.693 41.55-5.023m0 .001-8.9 1.276m16.97-5.947-8.07 4.67m8.07-4.67 41.54-4.783m-41.54 4.783 50.06-14.689m-58.13 19.359 49.61-9.453m-49.61 9.453 41.09-3.242m-41.09 3.242-8.9 1.277m-104.7 11.702 53.39-9.724m-53.39 9.724 39.53-5.142 13.86-4.582m0 0 51.31-1.978m-51.31 1.978 40.78-2.228 10.53.25m58.51-10.73-8.52 6.211m8.52-6.211 8.52-9.906m-8.52 9.906 49.63-11.178m-49.63 11.178 41.55-.842m-50.07 7.053-49.99 4.519m49.99-4.519-9.84 3.679-40.15.84m49.99-4.519 50.07-7.053m-50.07 7.053 41.03.762 9.04-7.815m-33.03-9.064 41.11-1.272m-41.11 1.272 50.01-14.798m-8.9 13.526 8.9-13.526m-8.9 13.526 49.61-9.303m-49.61 9.303-8.08 10.336m8.08-10.336 41.98 3.338m-33.08-16.864 40.71 4.223m-40.71-4.223 49.49-10.034m-49.49 10.034 49.49-10.033-8.78 14.256m0 0 8.78-14.257m-8.78 14.257 49.58-3.837m-49.58 3.837-7.63 12.641m7.63-12.641 42.37 8.277m-33.59-22.534 40.8 10.42m0 0-7.21 12.114m-100.06 11.362 50.06-6.998m-50.06 6.998 50.06-6.997m-50.06 6.997 41.9 4.15 8.16-11.147m0-.001 50-4.364m-50 4.365 50-4.365m-50 4.365 42.72 8.302 7.28-12.667m-1532.166 13.42-46.03 13.317m46.03-13.317 7.65 11.374m-7.65-11.374 52.391-5.093m-98.421 18.41 53.68-1.943m-53.68 1.943 6.663 12.874m47.016-14.817-47.016 14.817m47.016-14.817 8.026 12.914m-8.026-12.914 44.742-16.467m-44.742 16.467 53.687-4.592m-100.703 19.409 55.042-1.903m-55.042 1.903-49.466 13.754m49.466-13.754 7.002 13.728m48.04-15.631 45.66-17.506m-45.66 17.506 55.048-3.143m-55.048 3.143-48.04 15.631m48.04-15.631 8.434 14.552m28.282-43.933 8.945 11.875m-8.945-11.875 52.396-7.4M-39.6 413.289l9.387 14.363m-9.387-14.363 43.45-19.275m-43.45 19.275 53.693-5.493m-53.693 5.493 9.386 14.363 44.307-19.856m-44.306 19.856 44.306-19.856m-44.306 19.856 55.055-3.164m-55.055 3.164-46.614 17.695m46.614-17.695 9.867 16.257m24.197-49.895 10.242 13.782M3.85 394.014l52.404-7.44m-42.162 21.222 10.749 16.692m-10.75-16.692 42.163-21.222m-42.162 21.222 53.699-4.654m-42.95 21.346 42.95-21.346m-42.95 21.346 55.06-1.972m-55.06 1.972 11.301 18.317m-11.301-18.317-45.188 19.421m76.601-57.335 11.537 16.568m-11.537-16.568 52.409-5.216m-40.872 21.784 40.872-21.784m-40.872 21.784 12.11 19.374m-12.11-19.374 53.705-2.077m-12.833-19.707 12.833 19.707m-12.833-19.707 52.416.185m-350.849 64.909 56.468-.026m-56.468.026 56.467-.025-50.597 14.511m-5.87-14.486 5.87 14.486m50.598-14.512-50.598 14.512m50.598-14.512 7.378 14.518m-7.378-14.518 56.474-1.079M-183.9 460.938l57.976.006m-57.976-.006-53.342 15.016 59.559.037m-6.217-15.053 6.217 15.053m51.759-15.047 49.096-15.597m-49.096 15.597 57.984-.164m-57.984.164-51.759 15.047m51.759-15.047 7.809 15.084m41.287-30.681 8.888 15.433m-8.888-15.433 56.481-1.438m100.249-21.393-43.76 20.289m43.76-20.289 41.594-21.451m-85.354 41.74-46.09 17.811m46.09-17.811 11.908 17.809m-11.908-17.809-56.489 1.104m56.49-1.104-11.302-18.318-45.188 19.422m56.49-1.104 43.76-20.289m-43.76 20.289 56.495-.083M-67.94 460.78l47.593-16.871M-67.94 460.78l57.992-.164m-57.992.164-50.175 15.248m50.175-15.248 9.4 15.285m38.193-32.156 10.399 16.707m0 0 57.998-.002m-57.998.002-48.593 15.449m48.593-15.449 10.99 15.486-59.583-.037M48.05 460.614l44.588-17.892m28.858-41.657-41.593 21.451m41.593-21.451 13.475 21.404m-13.475-21.404 39.583-19.522m-39.583 19.522 53.712 2.959m-95.305 18.492 55.068-.047m-55.068.047 12.735 20.206m-12.735-20.206 12.736 20.206m42.332-20.253 40.237-18.445m-40.237 18.445 55.074 3.148m-55.074-3.148L92.64 442.722m42.332-20.253 14.17 20.311m11.938-61.237 14.129 22.481m-14.129-22.481 52.42 8.543m-38.291 13.938 14.837 21.593m-14.837-21.593 38.291-13.938m-38.291 13.938 53.718 7.928m-38.881 13.665 38.881-13.665m-38.881 13.665 55.082 5.545m-55.082-5.545-40.904 17.163m40.904-17.163 15.605 19.04m7.849-54.571 15.427 21.866M213.5 390.086l52.427 13.016m-37 8.85 16.201 19.21m-16.201-19.21 37-8.85m-37 8.85 53.724 9.815m-37.523 9.395 37.523-9.394m-37.523 9.394-16.201-19.209 53.724 9.815m-37.523 9.394 37.523-9.395m-37.523 9.395 55.088 5.782m-55.088-5.782 17.04 16.118m-17.04-16.118-39.477 13.495m60.276-41.555 16.724 18.665m-16.724-18.665 52.434 13.46m-35.71 5.205 35.71-5.205m-35.71 5.205 17.565 15.177m-17.565-15.177 53.731 8.613m-53.731-8.612 53.731 8.612m-53.731-8.612 17.565 15.176m18.145-20.382 18.021 13.818m-18.021-13.818 52.44 9.884m-52.44-9.884 18.022 13.818M92.639 442.722l-44.587 17.892m44.587-17.892 13.419 17.875m-13.42-17.875 56.503.058M48.052 460.614l58.006-.017m-58.006.017L1.043 476.102m47.01-15.488-58 .002 10.99 15.486m47.01-15.488 12.58 15.525m45.425-15.542 43.083-17.817m-43.083 17.817 43.084-17.817m-43.084 17.817 58.013.043m-58.013-.043-45.425 15.542m45.425-15.542 14.173 15.579M92.64 442.722l56.502.058m0 0 14.929 17.86m-14.929-17.86 56.509 1.877m-56.51-1.877 56.51 1.877m-56.51-1.877 14.93 17.86m136.145-23.696-38.048 10.336m38.048-10.336 36.166-6.564m-36.166 6.564 55.095 3.87m-55.095-3.87 18.475 12.483m-56.523-2.147-56.517-2.623m56.517 2.623-40.076 13.721m40.076-13.721-40.075 13.721m40.075-13.721 17.953 14.111m-17.953-14.111 56.523 2.147m-154.62 11.213 41.58-15.983m-41.58 15.983 58.021.361m-58.021-.361-43.84 15.536m43.84-15.536 15.765 15.573m25.815-31.556 16.441 16.344m0 0-42.256 15.212m-357.518-.222-54.641 15.961m54.641-15.961 6.596 16m-6.596-16 59.568.037m-114.209 15.924 61.237.039m-61.237-.039 54.641-15.96m-54.641 15.96-4.918-15.997 59.559.037m-54.641 15.96-57.809 16.888m57.809-16.888 5.195 16.93m56.042-16.891 52.971-15.962m-52.971 15.962-6.596-15.999m6.596 15.999 52.972-15.963m-52.972 15.963 61.245.039m-61.245-.039-56.042 16.891m56.042-16.891 6.969 16.932m-13.565-32.931 59.567.037m.001-.001 8.273 16.002m-8.273-16.002 59.574.037m-59.575-.036 59.574.037m-59.574-.037 8.274 16.001m0 0 51.301-15.965m-51.301 15.965 61.252.039m-61.252-.039 51.3-15.964m-51.3 15.964-54.276 16.893m54.276-16.893 8.744 16.935m42.557-32.9 9.95 16.004m0 0 49.632-15.966m-49.631 15.966-9.952-16.003m9.952 16.003 49.632-15.967m-49.632 15.967 61.261.039m-61.261-.039 10.521 16.937m-10.521-16.937-52.508 16.896m42.556-32.899 59.583.037m0 0 59.591.036m-59.59-.036 11.629 16.005M1.043 476.102l11.629 16.006M1.043 476.102l59.59.037m-350.765 32.701 63.004.042m-63.004-.042 63.003.042m-63.003-.042 3.593 17.958m59.411-17.916-59.411 17.916m59.411-17.916 5.475 17.96m-5.475-17.96 63.011.041m-122.422 17.875 64.886.044m-64.886-.044 59.41-17.916m-59.41 17.916-63.095 19.039 66.877.047m-3.782-19.086 3.782 19.086m61.104-19.042 57.536-17.919m-57.536 17.919-5.476-17.96m5.476 17.96 64.895.044m-64.895-.044-61.104 19.042m61.104-19.042 5.783 19.089m-11.259-37.049 63.012.041m0 0 7.359 17.963m-7.359-17.963 63.02.042m113.769-16.857-50.74 16.898m50.74-16.898 47.961-15.969m-98.7 32.867-53.787 17.924m53.786-17.924 11.127 17.968m-11.127-17.968-63.029-.041m63.03.041 50.74-16.898m-50.74 16.898 63.037.042m-181.728 17.838 55.661-17.921m-55.661 17.921 64.904.044m-64.904-.044-59.112 19.045m59.112-19.045 7.784 19.092m47.877-37.013 9.243 17.965m0 0 64.913.044m-64.913-.044-57.119 19.048 66.905.046m-9.786-19.094 9.786 19.094m-9.786-19.094-57.12 19.048m57.12-19.048 64.914.044m-.001 0 51.91-17.926m35.664-32.909-47.96 15.969m47.96-15.969 13.309 16.008m-13.309-16.008 59.598.037M12.673 492.108l61.269.039m-61.269-.039 12.297 16.94m48.972-16.901 46.289-15.971m-46.29 15.971 61.278.039m-61.277-.039L24.97 509.048m48.972-16.901 14.075 16.942m32.214-32.913 14.988 16.01m-14.988-16.01 59.605.037m-59.605-.037 59.605.038-44.617 15.972m0 0 44.617-15.973m-44.617 15.973 61.286.039m-61.286-.039-47.202 16.903m47.202-16.903 15.852 16.944m28.765-32.917 16.669 16.012m0 0 42.945-15.975m-42.945 15.975-16.668-16.012m16.668 16.012 61.294.039m-61.294-.039 17.631 16.947m-17.631-16.947-45.434 16.905m71.022-48.129-42.256 15.212m42.256-15.212 17.357 15.249m-17.357-15.249 58.028.39m-100.284 14.822 59.613.037m0 0 40.671-14.859M239.45 476.25l18.349 16.014M239.45 476.25l59.621.037m-18.95-14.896 38.57-11.964m-38.57 11.964 58.035.136m-58.035-.136 18.95 14.896M24.97 509.048l-51.91 17.926m51.91-17.926 13.012 17.97m-13.012-17.97 63.047.041M-26.94 526.974l64.922.044m-64.922-.044-55.128 19.05m55.128-19.05 11.788 19.097m53.134-19.053 50.035-17.929m-50.035 17.929 64.932.044m-64.932-.044-53.134 19.053m53.134-19.053 13.792 19.1m36.243-37.029 14.897 17.973m-14.897-17.973 63.054.041m-63.054-.041 14.896 17.974 48.158-17.933m106.728-16.866-43.663 16.908m43.663-16.908 41.272-15.977m-41.272 15.977 61.303.039m-61.303-.039 19.41 16.949m-63.073-.041-46.28 17.934m46.28-17.934 18.67 17.978m-18.67-17.978-63.065-.042m63.065.042-46.281 17.934m46.281-17.934 63.073.041m-174.295 17.849 48.157-17.932m-48.157 17.932 64.941.044m-64.941-.044-51.14 19.056m51.14-19.056 15.796 19.103m32.361-37.035 16.784 17.976m0 0-49.145 19.059m49.145-19.059 17.8 19.106m-17.799-19.106 64.95.044m-64.95-.044 17.8 19.106m47.15-19.062 44.403-17.937m-44.403 17.937 64.959.044m-64.959-.044-47.15 19.062m47.15-19.062-47.15 19.061 66.955.047m-19.805-19.108 19.805 19.108m83.771-115.878 18.929 10.434m0 0 34.808-6.104m-34.808 6.104-18.928-10.434m18.928 10.434 55.083.29m-55.083-.29-36.62 8.613m36.62-8.613 19.911 9.072m-4.421-23.44-34.418 3.934m34.418-3.934 19.318 8.264m-19.318-8.264 52.448 2.292m-86.866 1.642 53.736 4.33m0 0 20.275 6.394m-20.275-6.394 33.13-5.972m-33.13 5.972 53.723-1.145m-33.448 7.539 33.448-7.539m-33.448 7.539 55.054-1.474m-55.054 1.474-35.172 8.782m35.172-8.782 21.316 8.135m-8.461-20.501 20.593 4.827m-20.593-4.827 52.463-2.761m-31.87 7.588 21.606 6.065m-21.606-6.065 31.87-7.588m-31.87 7.588 53.726-1.744m-32.12 7.809 32.12-7.809m-32.12 7.809 55.061-.032m-55.061.032 22.747 8.93m-22.747-8.93-33.738 9.609m44.002-23.262 21.856 5.844m-21.856-5.844 52.469-.038m-30.613 5.882 30.613-5.882m-30.613 5.882 22.941 7.777m-22.941-7.777 53.731 2.995m-53.731-2.995 22.942 7.777m7.671-13.659 23.118 8.877m-23.118-8.877 52.462 8.079m-261.952 15.409 19.465 12.1m-19.465-12.1 56.531.459m-37.066 11.641 37.066-11.641m-37.066 11.641 58.036-.199m-58.036.199-39.085 14.76m39.085-14.76 20.544 14.797m-20.544-14.797 58.036-.198m-20.97-11.443 20.97 11.442m-20.97-11.442 56.488-.647m-56.488.647 20.97 11.443m124.317-21.731-32.314 8.962m32.314-8.962 30.79-4.782m-30.79 4.782 55.126 3.83m-87.44 5.132-33.975 12.606m33.975-12.606 24.061 12.629m-24.061-12.629-56.485.679m56.485-.679 32.315-8.962m-32.315 8.962 56.491 1.175m-56.491-1.175 24.061 12.63 32.43-11.455m-148.494 11.593 35.518-12.089m-35.518 12.089 58.028-.162m-58.028.162L358.7 476.324m37.492-14.996 22.177 15.033m13.341-27.122 22.51 11.927m-22.51-11.927-35.518 12.09m58.028-.163 58.036.023m-58.036-.023-35.85 15.195m35.85-15.195 23.834 15.232m-23.834-15.232-35.851 15.195m93.887-15.172 32.43-11.454m-32.43 11.454 58.067.389m-58.067-.389-34.202 15.209m34.202-15.209 25.49 15.246m-25.49-15.246 58.068.389m-174.132-.249L358.7 476.324m192.599-41.508 24.336 8.612m-24.336-8.612-30.789 4.782m30.789-4.782 29.344-.798m-5.008 9.41 29.456-2.031m-29.456 2.031-24.335-8.612m24.335 8.612 55.197 3.112m-55.197-3.112-30.948 6.307m30.948-6.307 25.684 8.048m-25.684-8.048-55.125-3.83m0 0 24.176 10.137m-24.176-10.137 24.177 10.137m35.956-15.717-29.343.798m29.343-.798 24.448 7.379m-24.448-7.379 52.454 7.686m-81.797-6.888 53.791 6.581m0 0 25.741 5.143m-25.741-5.143 28.006.307m-28.006-.307 53.799 3.607m-28.058 1.536 28.058-1.536m-28.058 1.536 55.186 1.103m-55.186-1.103-29.513 4.936m29.513-4.936 27.128 5.489m-24.863-10.325 25.793 3.3m-25.793-3.3 52.465 2.494-26.672.806m0 0 27.128 2.639m0 0-28.058 4.386m-113.274-2.294 25.637 11.843m0 0 30.996-10.102m-30.996 10.102-25.636-11.843m0 0 56.632 1.741m0 0-30.995 10.102m30.995-10.102 27.105 10.256m-27.105-10.256 56.641.553m-87.636 9.549 58.1.154m-58.1-.154-32.578 14.857m32.578-14.857 27.034 14.894m31.066-14.74 29.536-9.703m-29.536 9.703 58.101.46m-58.101-.46-31.066 14.74m31.066-14.74 28.551 14.777m.985-24.48 28.565 10.163m0 0-29.55 14.317m-357.904-.222 20.031 16.016m-20.031-16.016 59.629.037m-39.598 15.979 39.598-15.979m-39.598 15.979 61.323.04m-61.323-.04-41.893 16.91m41.893-16.91 21.187 16.952m18.411-32.931 21.725 16.019M358.7 476.324l59.669.037m-37.944 15.982 37.944-15.982m-37.944 15.982 61.359.039m-61.359-.039-40.136 16.912m40.136-16.912 22.955 16.953m14.989-32.935 23.415 16.021m0 0 36.269-15.983-59.683-.038m23.414 16.021-23.414-16.021m23.414 16.021 36.27-15.984m-36.27 15.984 61.367.039m-61.367-.039 24.695 16.956m-24.695-16.956-38.404 16.914m14.99-32.935 59.684.037m0 0 25.097 16.023m-25.097-16.023 59.692.037m-260.537 32.778 20.556 17.981m-20.556-17.981 63.08.042m-42.524 17.939 42.524-17.939m-42.524 17.939 64.952.044m-64.952-.044-45.154 19.064m45.154-19.064 21.811 19.111m20.713-37.05 22.428 17.983m-22.428-17.983 63.091.041m99.771-16.875-36.672 16.917m36.672-16.917 34.595-15.986m-34.595 15.986 61.332.039m-61.332-.039 26.436 16.958m-63.108-.041-38.837 17.944m38.837-17.944 26.099 17.988m-26.099-17.988-63.099-.042m63.099.042-38.836 17.945-24.263-17.987m63.099.042 63.108.041m-166.87 17.859 40.663-17.942m-40.663 17.942 64.925.044m-64.925-.044-43.141 19.067m43.141-19.067 23.761 19.114m16.902-37.056 24.262 17.986m0 0 64.936.044m-64.936-.044-41.164 19.07m41.164-19.07 25.731 19.117m39.205-19.073 37.009-17.947m-37.009 17.947 64.999.044m-64.999-.044-39.205 19.073m39.205-19.073-39.204 19.073m39.204-19.073 27.701 19.12m17.467-70.011 26.737 16.025m-26.737-16.025 59.612.037m-32.875 15.988 32.875-15.988m-32.875 15.988-26.737-16.024 59.612.036m-32.875 15.988 61.292.039m-61.292-.039-34.896 16.919m34.896-16.919 28.219 16.96m4.656-32.948 28.417 16.027m-28.417-16.027 59.617.037m-31.2 15.99 31.2-15.99m-31.2 15.99 61.311.713m-61.311-.713-33.073 16.921m33.073-16.921 30.051 16.963m1.149-32.953 30.111 16.703m0 0-31.26 16.25m-126.239-.083 27.99 17.991m-27.99-17.991 63.115.041m-35.125 17.95 35.125-17.95m-35.125 17.95-37.298 19.076m72.423-37.026-35.124 17.95m35.124-17.95 29.948 17.994m-29.948-17.994 63.124.042m-98.248 17.908 65.072.044m-65.072-.044-37.299 19.076m37.299-19.076 29.812 19.122m35.26-19.078 33.176-17.952m-33.176 17.952 65.066.168m-65.066-.168-35.26 19.078m35.26-19.078 31.869 19.125m1.307-37.077 31.89 18.12m0 0-33.197 18.957m-937.276-.655-65 20.262m65-20.262 4.005 20.311m-4.005-20.311-66.877-.046 1.877 20.308m65-20.262 66.887.047m-66.887-.047 4.005 20.312 62.882-20.265m-131.887 20.215 69.005.049m-69.005-.049L-417 587.724l71.262.053m-2.019-21.631 2.019 21.631m66.986-21.582 62.882-20.264m-62.882 20.264 69.017.05m-69.017-.05-66.986 21.582m66.986-21.582 4.287 21.635m58.595-41.899 6.135 20.314m-6.135-20.314 66.896.047m-66.896-.047 6.134 20.315 60.762-20.268m-60.761 20.267 60.761-20.267m-60.761 20.267 69.027.05m-69.027-.05-64.73 21.585m64.73-21.585 6.554 21.638m54.207-41.905 8.266 20.317m-8.266-20.317 66.906.047m-58.64 20.27 58.64-20.27m-58.64 20.27 58.64-20.271m-58.64 20.271 69.037.05m-69.037-.05 8.824 21.641m-8.824-21.641-62.472 21.588 71.296.053m-8.824-21.641-62.473 21.588m121.113-41.859 10.397 20.321m-10.397-20.321 66.916.047m-66.916-.046 66.916.046m-66.916-.046 10.397 20.32m-274.067 21.432 71.273.053m0 0 71.284.053m131.51-21.538-60.213 21.591m60.213-21.591 56.52-20.274m-56.52 20.274 69.047.05m-69.047-.05 11.094 21.644m-71.307-.053 71.307.053m45.425-41.918 12.528 20.324m-12.528-20.324 66.926.047m-54.398 20.277 54.398-20.277m-54.398 20.277 69.058.049m-69.058-.049-57.953 21.594m57.953-21.594 13.365 21.648m41.033-41.925 14.66 20.326m-14.66-20.326 66.936.047m-52.276 20.279 52.276-20.279m-52.276 20.279 69.068.05m-69.068-.05-55.693 21.599m55.693-21.599 15.636 21.652m36.64-41.931 16.792 20.329m-16.792-20.329 66.945.047m-66.945-.047 16.792 20.33 50.153-20.283m-50.153 20.282L82.07 588.096m103.585-41.884 66.956.046m-66.956-.046 18.927 20.332m-18.926-20.332-50.153 20.282m50.153-20.282 18.926 20.332m-265.159 21.445 71.318.054m0 0 71.329.053m53.433-21.602 69.079.05m-69.079-.05 17.907 21.655m-17.907-21.655L82.07 588.096m122.512-21.552-51.172 21.605m51.172-21.605 48.029-20.286m-48.029 20.286 69.09.05m-69.09-.05-51.171 21.604 71.35.054m-20.179-21.658 20.179 21.658m-71.351-.053-71.34-.053m170.541-41.838 21.061 20.336m-21.061-20.336 66.965.047m-45.904 20.289 45.904-20.289m-45.904 20.289 69.072.05m-69.072-.05-48.91 21.608 71.362.053m-22.452-21.661 22.452 21.661m-22.452-21.661-48.911 21.608m94.815-41.897 23.168 20.339m-23.168-20.339 66.902.047m-43.734 20.292 43.734-20.292m-43.734 20.292 69.026.05m-69.026-.05-46.62 21.611m46.62-21.611 24.746 21.664m18.988-41.956 25.292 20.342m-25.292-20.342 66.895.047m-41.603 20.295 41.603-20.295m-41.603 20.295-44.28 21.614m85.883-41.909-41.602 20.295m41.602-20.295 27.434 20.344m-184.683 21.512 71.366.053m44.281-21.614 69.036.049m-69.036-.049 27.096 21.667m-27.096-21.667-44.281 21.614m113.317-21.565-41.94 21.618m41.94-21.618 39.472-20.297m-39.472 20.297 69.136.05m-69.136-.05-27.433-20.344m27.433 20.344 29.449 21.671m-71.389-.053-71.377-.053m71.377.053 71.389.053m-56.882-42.015 66.905.047m0 0 29.664 20.347m-29.664-20.347 67.111.046m-37.447 20.301 37.447-20.301m-37.447 20.301 69.249.05m-69.249-.05-39.687 21.621m39.687-21.621 31.729 21.674m5.718-41.975 31.802 20.351m-31.802-20.351 67.129.047m-35.327 20.304 35.327-20.304m-35.327 20.304 69.235-.187m-69.235.187 35.327-20.303-67.129-.047 31.802 20.35Zm0 0-37.52 21.624m37.52-21.624 33.909 21.677m1.418-41.981 33.908 20.117m0 0-35.326 21.864m-142.845-.106 71.416.053m0 0 71.429.053M685.8 444.237l-26.68.802m26.68-.802 27.131 3.818m-27.131-3.818 52.509 4.951m-79.189-4.149 53.811 3.016m-53.811-3.016 27.15 2.691m26.661.325-26.661-.325m26.661.325 28.509 8.575m-28.509-8.575 25.378 1.133m-25.378-1.133 53.81 10.303m-53.81-10.303 28.51 8.575m-55.171-8.9 55.17 8.9m-55.17-8.9-28.068 4.448 56.623 4.401m-28.555-8.849 28.555 8.849m26.615.051-26.615-.051m23.484-7.391 28.432 9.17m-28.432-9.17 52.514 9.56m-24.082-.39-25.3-1.728m25.3 1.728 29.878 13.806m-29.878-13.806 24.082.39m-24.082-.39 53.816 13.766m-79.116-15.494 55.178 15.534m-55.178-15.534-26.615-.051m26.615.051 29.996 14.86m25.182.674 23.938-.04m-23.938.04 55.184 17.076m-55.184-17.076-25.182-.674m25.182.674 31.436 18.952m-37.232-32.368 29.734 13.376m-29.734-13.376 52.521 10.625m-22.787 2.751 31.246 17.116m-31.246-17.116 22.787-2.751m-22.787 2.751 53.823 12.908m-22.577 4.208 22.577-4.208m-22.577 4.208 55.192 13.52m-55.192-13.52 32.878 20.349m-32.878-20.349-23.748 1.876m15.289-21.743 31.036 15.659m0 0 21.491-7.518m-21.491 7.518-31.035-15.659 52.526 8.141m-21.491 7.518 32.615 17.728m-32.615-17.728 53.829 7.723m-32.338-15.241 32.338 15.241m-32.338-15.241 52.802 1.992m-233.848-22.927-28.036 5.907m28.036-5.907 30.085 16.786m-58.121-10.879 58.121 10.879m-58.121-10.879 28.037-5.907m-28.037 5.907-28.587-10.307 56.624 4.4m-28.037 5.907-29.56 14.36 59.698 4.724m-30.138-19.084 30.138 19.084m27.983-8.205 26.527-1.875m-26.527 1.875-30.084-16.786m30.084 16.786 58.129 19.541m-58.129-19.541-27.983 8.205m27.983-8.205 31.735 23.694m-61.819-40.48 56.611 14.911m0 0 31.602 21.416m-31.602-21.416 56.618 19.626m78.94 11.644-22.314 6.829m22.314-6.829 21.214-10.005m-21.214 10.005 55.475 4.463m-55.475-4.463-32.615-17.727 53.829 7.722m-21.214 10.005-22.313 6.829m22.313-6.829 34.318 18.27m-56.632-11.441-23.507 4.879m23.507-4.879 34.635 21.815m-34.635-21.815-56.626-18.473m-25.016 1.79 25.016-1.79m-25.016 1.79 58.135 21.562m-58.135-21.562-26.394 4.153m26.394-4.153 33.333 24.545m-8.317-26.335 33.119 23.352m0 0 58.142 16.936m-58.142-16.936-24.802 2.983m24.802-2.983 34.932 22.177m23.21-5.241 21.997-10.374m-21.997 10.374 58.191 5.492m-58.191-5.492-23.21 5.241m23.21-5.241 36.532 17.146m-27.639-55.795 34.261 14.468m-34.261-14.468 20.464-13.249m-20.464 13.249 55.034-3.224m-55.034 3.224 55.035-3.224m-55.035 3.224 34.262 14.468m-.001 0-21.157 13.807m7.36-41.524 34.57 10.025m-34.57-10.025 54.097-8.106m-19.527 18.131-20.772 17.692m20.772-17.692 35.957 6.284m-35.957-6.284 19.527-18.131m-19.527 18.131 55.417-14.856m-76.189 32.548 20.773-17.692m-20.773 17.692 56.729-11.408m-56.729 11.408-21.157 13.808m21.157-13.808 36.203 10.33m-15.43-28.022 55.416-14.856m-55.416 14.856 35.956 6.284m0 0 19.46-21.14m-19.46 21.14 56.44-21.415m-56.44 21.415-20.526 21.738m20.526-21.738 36.82 2.376m-53.25-26.791 35.89 3.275m-35.89-3.275 54.01-15.084m-18.12 18.359 36.98-.275m-36.98.275 55.58-20.713m-55.58 20.713 18.12-18.359m18.86 18.084 18.6-20.438m-18.6 20.438 56.66-24.869m-56.66 24.869 37.51-3.121m-37.51 3.121-19.62 23.791m.76-41.875-18.13 18.358 55.59-20.712m-37.46 2.354 37.46-2.354m0 0 17.26-15.814m-17.26 15.814-37.46 2.354 54.72-18.168m-17.26 15.814 38.06-4.431m-38.06 4.431 55.99-20.869m-55.99 20.869 38.06-4.431m-20.8-11.383 38.73-5.055m-38.73 5.055 54.97-15.598m-281.788 87.039 56.631 11.441m-56.631-11.441 56.632 11.442m-56.632-11.442 34.635 21.816 21.997-10.374m-.001-.001 36.194 15.866m0 0 21.167-19.343m-21.167 19.343-36.193-15.865m36.193 15.865 58.023-13.32m-58.023 13.32-21.659 11.654m21.659-11.654 37.743 7.992m-73.936-23.857 57.36-3.478m0 0 36.856 6.023m-36.856-6.023 57.346-19.362m76.28-48.66-19.15 21.748m0 0-57.13 26.912m57.13-26.912-20.05 25.938-37.08.974 57.13-26.912Zm0 0-20.05 25.938m20.05-25.938 37.38-4.196m-37.38 4.196 19.15-21.748m-19.15 21.748 57.26-26.361m-134.88 78.658 20.49-25.385m-20.49 25.385 57.57-26.359m-57.57 26.359-20.28 21.312m20.28-21.312 38.51 1.089m-18.02-26.474 37.08-.974m0 0-19.06 27.448m19.06-27.448 39.52-.627m-39.52.627 57.43-30.134M716.927 481.57l-29.561 12.014m29.561-12.014 31.836 21.41m-31.836-21.41-59.698-4.723 30.137 16.737m29.561-12.014 59.718 15.489m-89.279-3.475 61.397 9.396m-61.397-9.396-31.272 16.255m31.272-16.255 31.901 19.357m-31.901-19.357 31.902 19.357m29.495-9.961 27.882-5.921m-27.882 5.921 61.405 16.036m-61.405-16.036-29.495 9.961m29.495-9.961 33.686 20.244m-5.804-26.165 33.523 21.957m-33.523-21.957 59.727 20.392m-26.204 1.565 26.204-1.565m-26.204 1.565 61.414 17.584m-61.414-17.584-27.719 4.208m27.719-4.208 35.471 17.773m-9.267-19.338 35.21 19.149m-35.21-19.149 59.734 19.194m-24.524-.045 24.524.045m-24.524-.045 61.422 14.043M871.582 536.6l37.257 12.954M871.582 536.6l-25.943.189m50.467-.144 36.898 13.998m-36.898-13.998 59.742 11.905m-299.754-38.711 63.173 3.102m-63.173-3.102 31.919 18.142m31.254-15.04-31.254 15.04m31.254-15.04 33.812 19.5m-65.066-4.46 65.066 4.46m-65.066-4.46-33.21 18.984m33.21-18.984 33.889 19.4m31.177-14.94 29.37-9.217m-29.37 9.217-33.811-19.5m33.811 19.5 65.075 8.466m-65.075-8.466-31.177 14.94m31.177-14.94 35.902 18.558m-69.713-38.058 63.181 10.283m0 0 35.705 17.683m-35.705-17.683 63.19 13.565m87.365 13.854-24.165-1.089m24.165 1.089 22.844-2.093m-22.844 2.093 61.364 4.963m-61.364-4.963 39.043 6.808m-63.208-7.897-25.601.753m25.601-.753 39.494 8.021m-39.494-8.021-63.2-12.765m63.2 12.765 63.208 7.897m-63.208-7.897 39.494 8.022 23.714-.125m-153.893-16.544 27.485-4.118m-27.485 4.118 65.084 9.4m-65.084-9.4-29.173 10.092m29.173-10.092 37.915 15.367m-10.43-19.485 37.599 13.518m0 0 65.095 7.268m-65.095-7.268-27.169 5.967m27.169-5.967 39.929 10.839m-39.929-10.839 39.93 10.839m25.165-3.571 23.714-.124m-23.714.124 65.087 2.2m-65.087-2.2-25.165 3.571m25.165-3.571 41.943 5.991m-34.428-15.016 38.52 7.056m-38.52-7.056 59.402-3.662m-20.882 10.718 20.882-10.718m-20.882 10.718 60.682-11.4m-60.682 11.4-22.321 1.845m22.321-1.845 40.612-.448m-19.73-10.27 39.8-.682m-39.8.682 58.79-20.223m-18.99 19.541 18.99-19.541m-18.99 19.541 60.34-21.406m-60.34 21.406-39.79.682 58.78-20.223m-18.99 19.541-20.07 10.952m20.07-10.952 42.43-2.305m-23.44-17.236 41.35-1.865m-41.35 1.865 58.58-28.075m-17.23 26.21 17.23-26.21m-17.23 26.21-17.91 19.101m35.14-45.311 17.91-29.507m-17.91 29.507-17.23 26.209m17.23-26.209 43.1 1.67m-43.1-1.67 58.67-27.301m-40.76-2.206 19.88-22.165m-19.88 22.165 57.64-24.534m-57.64 24.534 40.76 2.206m-219.243 88.162 41.373 2.324m-41.373-2.324 62.933-2.293m-21.56 4.617 21.56-4.617m-21.56 4.617 64.86-5.31m-64.86 5.31-23.144 3.791m23.144-3.791 44.03 3.337m-22.47-7.954 43.3-.693m-43.3.693 62.5-13.257m17.91-19.102 60.33-24.539m-60.33 24.539 44.37.63m-44.37-.63-17.91 19.102m78.24-43.641-15.96 25.169m15.96-25.169 15.57-28.971m-15.57 28.971 60.48-20.247m-60.48 20.247 46.32 7.231m-46.32-7.231 46.32 7.231m-62.28 17.938-16.87 19.745m16.87-19.745 47.47 6.886m-47.47-6.886-62.28 18.472m62.28-18.472 62.28-17.938m-62.28 17.938 62.28-17.938m-143.76 48.974 19.2-12.564m-19.2 12.564 64.61-11.291m-64.61 11.291-20.83 8.647m20.83-8.647 46.23 3.93m-27.03-16.494 45.41 1.273m-45.41-1.273 62.28-18.471-16.87 19.744m0 0 64.34-12.859m-64.34 12.859-18.38 15.221m18.38-15.221 48.36 8.174m15.98-21.033 14.81-24.824m-14.81 24.824 64.44-10.278m-64.44 10.278 14.81-24.824m-14.81 24.824-15.98 21.033m15.98-21.033 50.65 14.425m-107.65-111.647-17.93 16.438m17.93-16.438 38.96-4.342m-38.96 4.342 16.24-10.543m-16.24 10.543 56.17-14.069m-74.1 30.507 56.89-20.78m-56.89 20.78 38.11-4.613m18.78-16.167 17.21-9.727m-17.21 9.727 56.89-8.773m-56.89 8.773-18.78 16.167m18.78-16.167 38.78-1.057m-61.5-5.144 39.93-3.526m-39.93 3.526 54.64-6.771m-14.71 3.245 39.68.954m-39.68-.954 14.71-3.245m-14.71 3.245 53.72-1.567m-14.04 2.521 14.04-2.521m-14.04 2.521 53.55 2.091m-53.55-2.091-18.11 7.716m18.11-7.716 38.44 6.408m-63.41-10.607 39.01 1.678m-39.01-1.678 50.7-.572m-11.69 2.25 39.51 4.612m-39.51-4.612 11.69-2.25m-11.69 2.25 52.06.443m-12.55 4.169 12.55-4.169m-12.55 4.169 53.9 2.816m-53.9-2.816 40.81 8.552m-40.81-8.552-15.11 4.317m-12.71-11.179 40.37 2.693m-40.37-2.693 50.9-2.859m-10.53 5.552 10.53-5.552m-10.53 5.552 41.35 6.985m-41.35-6.985 52.24-.069m-41.71-5.483 41.71 5.483m-41.71-5.483 50.96-3.59m-203.26 36.16 37.76-2.369m-37.76 2.369 57.56-17.224m-19.8 14.855 19.8-14.855m-19.8 14.855 58.12-9.523m-58.12 9.523-16.88 26.739 59.01-17.889m-42.13-8.85 42.13 8.85m-42.13-8.85-16.88 26.74m36.68-41.595 38.32 5.332m-38.32-5.332 56.55-1.308m69.01-1.501-13.09 5.736m13.09-5.736 10.89-7.054m-10.89 7.054 54.02 3.065m-54.02-3.065 43.11 11.463m-56.2-5.727-15.88 5.761m15.88-5.761 42.9 12.868m-42.9-12.868-55.92-4.235m55.92 4.235 56.2 5.727m-130.35-3.322 18.23-6.64m-18.23 6.64 58.27 3.356m-58.27-3.356-15.99 18.373m15.99-18.373 43.88 16.759m-25.65-23.399 40.04 9.996m0 0 58.78 7.107m-58.78-7.107-14.39 13.403m14.39-13.403 46.27 18.87m-46.27-18.87-14.39 13.403m73.17-6.296 13.3-7.141m-13.3 7.141 58.95 8.348m-58.95-8.348-42.9-12.867m42.9 12.867-12.51 11.763m12.51-11.763-58.78-7.107m58.78 7.107-12.51 11.764m12.51-11.764 48.47 19.653m-107.25-26.76 15.88-5.76m-15.88 5.76-40.04-9.995 55.92 4.235m-15.88 5.76 46.27 18.87m-30.39-24.63 56.2 5.726m-32.22-18.517 43.13 10.119m-43.13-10.119 9.25-9.073m-9.25 9.073 52.25-.046m-52.25.046 43.13 10.12m0-.001 9.12-10.165m-9.12 10.165 53.91 2.828m-53.91-2.828-10.91 8.398m10.91-8.398 45.3 14.118m-79.18-33.31 43 9.027m-43-9.027 50.9-2.775m-7.9 11.802-9.12 10.166m9.12-10.166 44.79 12.993m-44.79-12.993 7.9-11.802m-7.9 11.802 52.07.504m-52.07-.504 44.79 12.994m-53.91-2.828 53.91 2.828m-53.91-2.828 45.3 14.117m8.61-11.29 7.28-12.489m-7.28 12.489 53.58 2.095m-53.58-2.095-8.61 11.29m8.61-11.29 47.33 15.496m-84.22-40.291 44.17 12.306m-44.17-12.306 50.72-.422-6.55 12.728m0 0 46.3 14.584m-46.3-14.584-7.28 12.49m53.58 2.094-6.25 13.401m-47.33-15.495-8.61 11.289m-56.21-5.72 45.65 15.489m-45.65-15.489 56.21 5.72m-10.56 9.769 10.56-9.769m-10.56 9.769 58.79 7.072m-58.79-7.072-10.48 11.305m10.48-11.305 50.49 19.168m-39.93-28.937 48.23 16.841m-48.23-16.841 55.94 4.206m-7.71 12.635 7.71-12.635m-7.71 12.635 58.31 3.266m-58.31-3.266-8.3 12.096m8.3-12.096 52.39 17.489m-44.68-30.124 50.6 15.901m0 0-5.92 14.223m-362.18-7.109 44.91 8.724m-44.91-8.724 59.01-17.89m-14.1 26.614 14.1-26.614m-14.1 26.614 60.93-8.756m-60.93 8.756-14.16 27.478m14.16-27.478 48.35 15.82m-34.25-42.434 46.83 17.858m-46.83-17.858 59.87-1.614m-59.87 1.614 59.87-1.614m-13.04 19.472 13.04-19.472m-13.04 19.472 62.14 2.84m-62.14-2.84 13.04-19.472m-13.04 19.472-12.58 24.576m12.58-24.576 50.72 23.527m-37.68-42.999 49.1 22.312m0 0 11.56-16.844m-11.56 16.844-49.1-22.312m49.1 22.312 11.56-16.845m-11.56 16.845 62.53 5.882m-62.53-5.882 52.6 24.168m-52.6-24.168-11.42 20.687m-37.68-42.999 60.66 5.467m-60.66-5.467 60.66 5.468m0-.001 50.97 22.727m-50.97-22.726 60.98 7.889m-60.98-7.889 50.97 22.726m-199.76 27.512 49.63 14.546m0 0 12.88-26.203m-12.88 26.203-49.63-14.546m49.63 14.546 12.88-26.204m-12.88 26.204 64.72-3.495m-64.72 3.495-13.79 24.703m13.79-24.703 52.97 21.25m-102.6-35.796 62.51-11.658m-62.51 11.658 62.51-11.657m0-.001 51.84 22.709m-51.84-22.709 63.3-1.049m-63.3 1.05 63.3-1.05m-63.3 1.05 51.84 22.708m85.41-38.563-9.93 18.286m9.93-18.286 10.01-14.837m-10.01 14.837 62.66 6.881m-62.66-6.881 54.29 23.386m-64.22-5.1-9.93 21.468m9.93-21.468 55.86 24.491m-55.86-24.491-64.02-3.481m64.02 3.481 64.22 5.1m-64.22-5.1 64.22 5.101m-64.22-5.101 55.86 24.491 8.36-19.39m-139.7 15.176 11.46-23.758m-11.46 23.758 65.55 1.191m-65.55-1.191-11.75 24.745m11.75-24.745 55.37 24.973m-43.91-48.731 54.09 24.949m-54.09-24.949 64.02 3.482-9.93 21.468-54.09-24.95Zm54.09 24.949 65.79 3.023m-65.79-3.023-10.18 23.782m10.18-23.782 57.27 24.933m8.52-21.91 8.36-19.391m-8.36 19.391 65.86 3.623m-65.86-3.623-8.52 21.91m8.52-21.91 59.05 23.873m-94.97-81.487 52.65 21.718m-52.65-21.718 60.97 7.863m-60.97-7.863 60.97 7.864-8.32 13.854m0 0 8.32-13.855m-8.32 13.855 62.54 5.841m-62.54-5.841-8.37 16.505m16.69-30.36 54.22 19.696m-54.22-19.696 60.69 5.393m-6.47 14.303 6.47-14.303m-6.47 14.303 62.17 2.766m-62.17-2.766-6.67 15.748m6.67-15.748-62.54-5.841m62.54 5.841 57.36 19.185m-50.89-33.488 55.7 17.069m0 0-4.81 16.419m-128.27-8.521 57.5 23.014m-57.5-23.014 8.37-16.505m-8.37 16.505 64.24 5.084m-6.74 17.93 6.74-17.93m-6.74 17.93 65.8 3m-65.8-3-6.81 20.25m6.81-20.25 60.76 22.206m-118.26-45.219 64.24 5.083m-64.24-5.083 57.5 23.014 6.74-17.931m-55.87-21.589 55.87 21.589m0 0 59.06 20.93m-59.06-20.93 64.03 3.437m-64.03-3.437 64.03 3.438-4.97 17.493-59.06-20.931Zm59.06 20.93 4.97-17.493m-4.97 17.493 65.58 1.155m-65.58-1.155-5.04 19.206m5.04-19.206 62.44 20.337m-57.47-37.83 60.61 18.648m0 0-3.14 19.182m-1007.027-.751 67.099.416m-67.099-.416 33.94 20.142m33.159-19.726-33.159 19.726m33.159-19.726 36.051 20.076m-36.051-20.076 67.079 3.618m-100.238 16.108 69.21.35m-69.21-.35-35.339 21.897 71.481.016m-36.142-21.913 36.142 21.913m33.068-21.563 31.028-16.458m-31.028 16.458 69.221 1.72m-69.221-1.72-33.068 21.563m33.068-21.563 38.423 21.626m-7.395-38.084 38.193 18.178m-38.193-18.178 67.088 5.275m-28.895 12.903 28.895-12.903m-28.895 12.903 69.231 2.036m-69.231-2.036L788.981 551l67.088 5.274m-28.895 12.903-30.798 19.906m30.798-19.906 40.705 19.997m-11.81-32.9 40.336 14.939m-40.336-14.939 67.098 4.872m-26.762 10.067 26.762-10.067m-26.762 10.067 69.242 1.309m-69.242-1.309 42.988 18.04m-42.988-18.04-28.526 17.961m55.288-28.028 42.48 11.376m-42.479-11.376 67.108 2.42m-67.108-2.42 42.479 11.376M724.885 589.02l71.491.063m0 0 71.503.091m97.768-16.652-26.254 16.731m26.254-16.731 24.629-8.956m-24.629 8.956 69.283-.047m-69.283.047 45.273 16.771m-71.527-.04-71.514-.079m71.514.079 71.527.04m-20.644-25.727 44.654 8.909m-44.654-8.909 67.174-.454m-67.174.454 67.174-.453m-22.52 9.362 22.52-9.362m-22.52 9.362 22.52-9.363m-22.52 9.363 69.41-.33m-69.41.33-24.01 16.818m24.01-16.818 47.53 16.88m-25.01-26.243 46.89 9.033m-46.89-9.033 67.06-4.717m-67.06 4.718 67.06-4.718m-67.06 4.718 46.89 9.033 20.17-13.751m-20.17 13.75 20.17-13.75m-20.17 13.75 69.31-2.313m-69.31 2.313-21.88 17.21m21.88-17.21 49.67 17.248m-29.5-30.998 49.14 11.437m-49.14-11.437 66.74-7.047m-17.6 18.484 17.6-18.484m-17.6 18.484 69.02-2.542m-69.02 2.542 51.92 19.581m-51.92-19.581-19.64 19.561m37.24-38.045 51.42 15.942m-51.42-15.942 66.63-6.608m-246.96 44.553 71.54.062m0 0 71.55.038m88.66-22.103-17.1 22.123m17.1-22.123 15.21-22.55m-15.21 22.55 69.06-1.667m-69.06 1.667 54.46 22.158m-71.56-.035-71.56-.02m71.56.02 71.56.035m-39.25-44.708 53.85 20.883m-53.85-20.883 66.76-3.453m-12.91 24.336 12.91-24.336m-12.91 24.336-53.85-20.882m53.85 20.882 69.16.519m-69.16-.519-14.6 23.825m14.6-23.825 56.98 23.892m-110.83-44.774-15.21 22.55-51.42-15.943 66.63-6.607Zm0 0 66.76-3.454m0 0 56.25 24.855m-56.25-24.855 67.12.228m-67.12-.228 56.25 24.855 10.87-24.627m-10.87 24.627 10.87-24.627m-10.87 24.627 69.35-.011m-69.35.011-12.18 23.373m12.18-23.373 59.41 23.442m-48.54-48.069 58.48 24.616m-58.48-24.616 67.45 1.151m-67.45-1.151 67.45 1.152m-8.97 23.464 8.97-23.464m-8.97 23.464 8.97-23.465m-8.97 23.465 69.44.606m-69.44-.606 61.66 23.507m-61.66-23.507-9.94 23.453m18.91-46.918 60.47 24.071m-60.47-24.071 67.57 1.963m-67.57-1.962 67.57 1.963m-67.57-1.963 60.47 24.07m-222.55 22.711 71.58.067m0 0 71.59.069m79.38-22.847-7.78 22.901m7.78-22.901 7.1-22.108m-7.1 22.108 69.47.807m-69.47-.807 7.1-22.107m-7.1 22.107 63.84 22.959m-71.62-.058-71.6-.054m71.6.054 71.62.058m-56.74-45.067 62.37 22.915m-62.37-22.915 67.57 1.956m-5.2 20.959 5.2-20.959m-5.2 20.959-62.37-22.914m62.37 22.914 69.46.598m-69.46-.598-5.63 22.152m5.63-22.152 66 22.209m-128.37-45.123 67.57 1.955m0 0 64.26 21.557m-64.26-21.557 67.48 1.131m-67.48-1.131 67.48 1.132-3.22 20.425m0 0 3.22-20.426m-3.22 20.426 69.39-.02m-69.39.02-3.46 21.611m3.46-21.611 68.17 21.663m-64.95-42.089 66.17 20.406m0 0-1.22 21.683m-143.26-.109 71.63.057m0 0 71.63.052m-637.8-346.76 31.99-54.676-43.21 4.162 11.22 50.514Zm105.78-92.124 19.48-18.74-40.24-23.018 20.76 41.758Z"/></g><defs><linearGradient id="b" x1="655" x2="655.5" y1="22.5" y2="589.805" gradientUnits="userSpaceOnUse"><stop stop-color="#C2DCFB"/><stop offset="1" stop-color="#A7CFFF"/></linearGradient><clipPath id="a"><path fill="#fff" d="M0 0h1400v580H0z"/></clipPath></defs></svg>